<svg xmlns="http://www.w3.org/2000/svg" xmlns:xlink="http://www.w3.org/1999/xlink" width="40" height="40">
  <defs>
    <clipPath id="a">
      <path data-name="Rectangle 1525" fill="#fff" d="M0 0h30.751v26.334H0z"/>
    </clipPath>
  </defs>
  <g data-name="-icon">
    <g data-name="Groupe 152">
      <g data-name="Groupe 132" transform="translate(4.71 6.333)" clip-path="url(#a)">
        <path data-name="Tracé 320" d="M10.049 26.046a9.513 9.513 0 0 1-2.212-.248 7.184 7.184 0 0 1-1.039-.339 8.552 8.552 0 0 1-1.081-.538 9.645 9.645 0 0 1-2.119-1.695 10.468 10.468 0 0 1-1.774-2.56 12.051 12.051 0 0 1-1.075-3.463.127.127 0 1 1 .251-.04c.763 4.832 4.018 7.7 6.9 8.391a10.17 10.17 0 0 0 6.182-.574 8.347 8.347 0 0 0 3.611-4.008 9.98 9.98 0 0 0 .548-1.717l.149-.56-.144.038a.127.127 0 0 1-.155-.15c0-.014.077-.351.225-.871a18.567 18.567 0 0 1 .677-1.962 9.741 9.741 0 0 1 1.143-2.1 4.41 4.41 0 0 1 .759-.8 2.474 2.474 0 0 1 .9-.473.846.846 0 0 1 .36-.027.487.487 0 0 1 .275.143.754.754 0 0 1 .173.537 2.464 2.464 0 0 1-.128.724 5.075 5.075 0 0 1-.41.933 5.8 5.8 0 0 1-.637.923 4.337 4.337 0 0 1-.817.758 2.577 2.577 0 0 1-.956.429.6.6 0 0 0-.336.244 2.471 2.471 0 0 0-.314.58 7.874 7.874 0 0 0-.238.685 7.968 7.968 0 0 0 2.782-1.854 9.489 9.489 0 0 0 1.231-1.493c.851-1.494.863-2.693.035-3.469a2.2 2.2 0 0 0-1.435-.578 4.667 4.667 0 0 0-1.372.125c.056.1.093.159.094.16l.005.009a4.911 4.911 0 0 1 .251.56 2.769 2.769 0 0 1 .139.489.9.9 0 0 1-.02.472.421.421 0 0 1-.257.254.742.742 0 0 1-.435.033.657.657 0 0 1-.3-.168.894.894 0 0 1-.206-.31 4.912 4.912 0 0 0-.368-.761 1.935 1.935 0 0 0-.218.46 5.566 5.566 0 0 1 .457 2.646 2.458 2.458 0 0 1-.2.782 3.992 3.992 0 0 1-.465.795 6.16 6.16 0 0 1-.7.784 8.554 8.554 0 0 1-.907.749 11.223 11.223 0 0 1-2.009 1.141 12.834 12.834 0 0 1-2.435.8 12.6 12.6 0 0 1-2.728.3 11.8 11.8 0 0 1-2.886-.36 13.264 13.264 0 0 1-3.584-1.439 7.427 7.427 0 0 1-1.947-1.648 5.368 5.368 0 0 1-.512-.75 4.388 4.388 0 0 1-.288-.617 2.69 2.69 0 0 1-.154-.577 3.914 3.914 0 0 1-.023-1.068 5 5 0 0 1 .24-1.1 5.276 5.276 0 0 1 .646-1.286 6.975 6.975 0 0 1 2.4-2.1 11.633 11.633 0 0 1 2.015-.884 18.088 18.088 0 0 1 2.69-.65 16.274 16.274 0 0 1 3.082-.235 11.614 11.614 0 0 1 2.494.324 8.69 8.69 0 0 1 3.436 1.682 7.953 7.953 0 0 1 1.049 1.031 7.683 7.683 0 0 1 .58.782l.039-.037a2.083 2.083 0 0 1 .663-.41 4.651 4.651 0 0 1-.207-.512 3.22 3.22 0 0 1-.176-.915 1.888 1.888 0 0 1 .211-.969 5.881 5.881 0 0 1 .651-.965 5.27 5.27 0 0 1 1.062-.974 5.632 5.632 0 0 1 3.65-.908 4.5 4.5 0 0 0 3.294-1.231 5.989 5.989 0 0 0 2-3.754.127.127 0 0 1 .254.012 5.055 5.055 0 0 1-.59 1.99 6.781 6.781 0 0 1-1.497 1.939 5.3 5.3 0 0 1-1.571.99 4.362 4.362 0 0 1-1.909.305 5.114 5.114 0 0 0-5.122 2.714 2.171 2.171 0 0 0-.019 1.677 4.4 4.4 0 0 0 .211.515l.024-.001a4.895 4.895 0 0 1 1.475-.142 2.456 2.456 0 0 1 1.6.647 2.208 2.208 0 0 1 .441.569 2.157 2.157 0 0 1 .242.809 3.02 3.02 0 0 1-.1 1.064 5.663 5.663 0 0 1-.571 1.34c0 .007-.117.186-.33.467a10.609 10.609 0 0 1-.939 1.073 9.14 9.14 0 0 1-1.491 1.214 6.929 6.929 0 0 1-1.557.757c-.066.234-.129.475-.192.713a10.1 10.1 0 0 1-.567 1.767 12.615 12.615 0 0 1-1.347 2.169 7.773 7.773 0 0 1-1.045 1.09 5.946 5.946 0 0 1-1.339.866 8.354 8.354 0 0 1-1.443.506 10.723 10.723 0 0 1-1.616.28c-.364.037-.725.054-1.084.054Zm.96-18.274a16.15 16.15 0 0 0-2.66.231c-3.389.567-5.722 1.75-6.934 3.515a4.9 4.9 0 0 0-.845 2.265 3.7 3.7 0 0 0 .019 1.01.118.118 0 0 1 0 .013 2.458 2.458 0 0 0 .147.538 4.684 4.684 0 0 0 .766 1.3 9.785 9.785 0 0 0 5.385 2.979 11.624 11.624 0 0 0 2.869.358 12.24 12.24 0 0 0 6.978-2.194 7.093 7.093 0 0 0 1.55-1.478 2.885 2.885 0 0 0 .617-1.444 5.3 5.3 0 0 0-.308-2.2 8.361 8.361 0 0 0-.087 1.127 4.242 4.242 0 0 1-.217 1.511 4.1 4.1 0 0 1-.759 1.1 7.831 7.831 0 0 1-1.12.98 11.2 11.2 0 0 1-2.535 1.383 9.538 9.538 0 0 1-1.681.423 15.745 15.745 0 0 1-2.426.215 13.929 13.929 0 0 1-2.793-.241 10.067 10.067 0 0 1-2.777-.95 5.672 5.672 0 0 1-2.969-3.035 3.989 3.989 0 0 1 .106-2.731 5.467 5.467 0 0 1 1.78-2.161 8.881 8.881 0 0 1 3.09-1.538 21.093 21.093 0 0 1 4.357-.667 14.2 14.2 0 0 1 2.39.082 7.531 7.531 0 0 1 2.125.558 7.725 7.725 0 0 1 1.718 1.057 6.9 6.9 0 0 1 1.33 1.433 6.214 6.214 0 0 1 .421.708 2 2 0 0 1 .224-.381 7.632 7.632 0 0 0-1.627-1.825 9.434 9.434 0 0 0-6.134-1.941Zm.3.547a20.747 20.747 0 0 0-5.042.675 8.68 8.68 0 0 0-3 1.495 5.217 5.217 0 0 0-1.7 2.053c-.484 1.24-.771 3.6 2.744 5.448a11.677 11.677 0 0 0 5.449 1.162 12.84 12.84 0 0 0 4.019-.621 10.932 10.932 0 0 0 2.475-1.351 5.379 5.379 0 0 0 1.8-1.983 4.089 4.089 0 0 0 .2-1.416 7.4 7.4 0 0 1 .121-1.32q.023-.107.052-.208a6.764 6.764 0 0 0-3.451-3.3 9.156 9.156 0 0 0-3.663-.634Zm10.731 4.272a.716.716 0 0 0-.183.027 2.964 2.964 0 0 0-1.515 1.185 9.483 9.483 0 0 0-1.112 2.041 18.789 18.789 0 0 0-.842 2.588l.083-.025a8.821 8.821 0 0 1 .3-.882 2.713 2.713 0 0 1 .349-.64.844.844 0 0 1 .485-.337 3.126 3.126 0 0 0 1.63-1.1 5.4 5.4 0 0 0 1-1.769 2.248 2.248 0 0 0 .117-.648.526.526 0 0 0-.1-.361.269.269 0 0 0-.208-.08Zm-2.523-.138a.641.641 0 0 0 .148.217.421.421 0 0 0 .465.074.166.166 0 0 0 .105-.106 1.306 1.306 0 0 0-.12-.782 4.752 4.752 0 0 0-.235-.524c-.013-.02-.061-.1-.125-.214a1.834 1.834 0 0 0-.6.368q-.039.036-.074.074a5.253 5.253 0 0 1 .439.892Z" fill="#fff"/>
      </g>
    </g>
  </g>
</svg>
