<svg xmlns="http://www.w3.org/2000/svg" xmlns:xlink="http://www.w3.org/1999/xlink" width="40" height="40">
  <defs>
    <clipPath id="a">
      <path data-name="Rectangle 1548" fill="#fff" stroke="#707070" stroke-width="3" d="M0 0h14.81v32.233H0z"/>
    </clipPath>
  </defs>
  <g data-name="-icon">
    <g data-name="Groupe 147" transform="rotate(14.98 -4.862 66.35)" clip-path="url(#a)" fill="#fff">
      <path data-name="Tracé 330" d="M7.372 30.705c-.53 0-1.028-.022-1.491-.065a9.437 9.437 0 0 1-2.287-.472 5.274 5.274 0 0 1-2.175-1.426l-.109-.11a1.542 1.542 0 0 1-.4-.687 1.97 1.97 0 0 1-.059-.678 2.55 2.55 0 0 1 .161-.715c.186-.658 3.748-13.286 3.983-13.906a4.673 4.673 0 0 0 .183-1.507s0 0 0-.007V8.356a.16.16 0 1 1 .319 0v2.773a4.888 4.888 0 0 1-.2 1.631c-.232.611-3.939 13.756-3.977 13.888a.162.162 0 0 1-.007.019 2.236 2.236 0 0 0-.142.634 1.353 1.353 0 0 0 .366 1.106l.111.112c.666.68 1.831 1.868 5.718 1.868.6 0 1.254-.028 1.986-.09a12.49 12.49 0 0 0 1.679-.24 18.609 18.609 0 0 1-2.963.226 19.566 19.566 0 0 1-3.129-.223 7.806 7.806 0 0 1-1.2-.282 2.157 2.157 0 0 1-.783-.414.918.918 0 0 1-.228-.308.444.444 0 0 1-.012-.333.626.626 0 0 1 .269-.3 1.912 1.912 0 0 1 .446-.194 7.628 7.628 0 0 1 1.312-.252c1.021-.125 2.305-.182 3.438-.232l.551-.025a6.187 6.187 0 0 1 1.323.089 6.6 6.6 0 0 1 1.225.331 3.625 3.625 0 0 1 .93.5.986.986 0 0 1 .426.632 1.606 1.606 0 0 0 .444-.3 2.67 2.67 0 0 0 .514-2.328 11.721 11.721 0 0 0-.684-2.381c-.058-.156-.109-.29-.146-.4-.319-.937-3.2-10.5-3.337-10.935a4.711 4.711 0 0 1-.244-1.346c.021-.508.043-3.3.043-3.33a.16.16 0 0 1 .085-.14 2.486 2.486 0 0 0 .353-.235c.182-.147.281-.288.266-.377-.01-.059-.079-.124-.195-.182a2.818 2.818 0 0 0-.819-.213 10.567 10.567 0 0 0-2.571-.065 4.192 4.192 0 0 0-.9.187c-.291.1-.354.2-.366.231-.032.074.076.177.143.232a3.272 3.272 0 0 0 2.149.349 7.075 7.075 0 0 0 1.125-.18 1.465 1.465 0 0 0 .538-.2.31.31 0 0 0 .029-.038.478.478 0 0 0-.113-.046 2.476 2.476 0 0 0-.405-.071 16.609 16.609 0 0 0-1.665-.06 6.353 6.353 0 0 0-.9.049 1.153 1.153 0 0 0-.222.052.812.812 0 0 0 .124.076 5.834 5.834 0 0 0 1.533.022.16.16 0 1 1 .039.317 6 6 0 0 1-1.649-.028.16.16 0 0 1-.037-.012 1.181 1.181 0 0 1-.172-.1.594.594 0 0 1-.129-.117.268.268 0 0 1-.061-.228c.039-.18.256-.245.416-.278a5.7 5.7 0 0 1 1.061-.073 15.845 15.845 0 0 1 1.768.07c.438.054.647.141.719.3a.334.334 0 0 1-.091.373.72.72 0 0 1-.275.17 3.24 3.24 0 0 1-.422.134 7.389 7.389 0 0 1-1.178.19 3.727 3.727 0 0 1-2.381-.42.766.766 0 0 1-.231-.282.4.4 0 0 1 0-.325.875.875 0 0 1 .551-.4 4.44 4.44 0 0 1 .97-.2 10.9 10.9 0 0 1 2.65.058 3.066 3.066 0 0 1 .917.244.6.6 0 0 1 .366.412c.038.217-.091.447-.383.682a2.764 2.764 0 0 1-.316.218c0 .5-.023 2.782-.042 3.249a4.5 4.5 0 0 0 .229 1.234c.03.1 3.016 9.993 3.334 10.926.036.106.086.238.143.392a11.987 11.987 0 0 1 .7 2.448 4.3 4.3 0 0 1 0 1.389 2.306 2.306 0 0 1-.6 1.206 2.234 2.234 0 0 1-.772.474.815.815 0 0 1-.088.109 1.675 1.675 0 0 1-.582.364 8.984 8.984 0 0 1-2.489.478c-.712.054-1.383.088-2.008.088Zm1.6-2.671q-.116 0-.228.005l-.552.025c-1.127.05-2.4.106-3.413.23a7.438 7.438 0 0 0-1.255.24c-.409.129-.494.252-.512.3-.033.09.069.212.16.3a3.944 3.944 0 0 0 1.814.613 19.23 19.23 0 0 0 3.076.219 17.749 17.749 0 0 0 3.106-.256 7.079 7.079 0 0 0 1.137-.3.245.245 0 0 0 .012-.092c-.018-.273-.471-.618-1.153-.879a6.387 6.387 0 0 0-2.188-.409Z"/>
      <path data-name="Ellipse 22" d="M8.643 2.403a1.623 1.623 0 0 1 1.155.479 1.623 1.623 0 0 1 .479 1.155 1.623 1.623 0 0 1-.479 1.155 1.623 1.623 0 0 1-1.155.479 1.623 1.623 0 0 1-1.155-.479 1.623 1.623 0 0 1-.479-1.155 1.623 1.623 0 0 1 .479-1.155 1.623 1.623 0 0 1 1.155-.479Zm0 2.949a1.316 1.316 0 0 0 1.315-1.315 1.316 1.316 0 0 0-1.315-1.315 1.316 1.316 0 0 0-1.315 1.315 1.316 1.316 0 0 0 1.315 1.315Z"/>
      <path data-name="Tracé 331" d="M5.934.472a.891.891 0 1 1-.891.891.892.892 0 0 1 .891-.891Zm0 1.463a.572.572 0 1 0-.572-.572.573.573 0 0 0 .572.572Z"/>
      <path data-name="Ellipse 23" d="M4.284 3.247a1.117 1.117 0 1 1 0 1.58 1.118 1.118 0 0 1 0-1.58Zm1.354 1.354a.8.8 0 1 0-1.131 0 .8.8 0 0 0 1.13 0Z"/>
    </g>
  </g>
</svg>
