<svg xmlns="http://www.w3.org/2000/svg" width="88.983" height="173.675" viewBox="0 0 88.983 173.675"><g transform="translate(-45 1639.366)"><path d="M74.683-1639.358,45-1639.325v173.489H77.683l.022-40.373.034-40.372,1.343,1.612c1.7,2.059,7.611,9.189,16.789,20.225,1.9,2.294,3.492,4.175,3.537,4.175a3.926,3.926,0,0,0,.761-.56c.627-.526,1.019-.638,1.019-.291v55.572l15.726.011c8.641,0,16.028.033,16.4.078l.672.067v-92.542l-1.421,1.421-1.433,1.41-23.113-11.562L84.9-1578.536l3.783-.011c2.071,0,6.962-.011,10.857-.011s7.555-.056,8.137-.112a29.846,29.846,0,0,0,13.935-4.835,24.15,24.15,0,0,0,3.85-3.156,28.324,28.324,0,0,0,8.271-16.655,77.727,77.727,0,0,0-.011-11.529,29.055,29.055,0,0,0-5.966-14.069,29.007,29.007,0,0,0-21.983-10.432C105-1639.37,91.014-1639.37,74.683-1639.358Zm33.22,4.634a25.271,25.271,0,0,1,11.081,3.873,20.015,20.015,0,0,1,3.391,2.708,23.7,23.7,0,0,1,6.872,13.667,67.616,67.616,0,0,1,0,10.857c-1.634,10.331-8.618,17.786-18.714,19.979-2.72.582-2.821.593-18.379.6l-14.472.011v-51.823l13.353-.034C105.15-1634.915,106.225-1634.9,107.9-1634.724Zm-53.524.067c-.213.269-4.555,5.193-4.746,5.406-.134.134-.157-.291-.157-2.72v-2.876h2.541C54.413-1634.848,54.536-1634.836,54.38-1634.657Zm4.253.224c-.291.313-8.865,9.906-9.122,10.208-.011.022-.034-.526-.034-1.231l.011-1.276,3.593-4.063,3.6-4.052h2.35Zm6.223.839c-.672.694-4.388,4.522-8.26,8.506s-7.051,7.253-7.074,7.253-.045-.9-.045-1.992v-2l5.82-6.5,5.82-6.514h4.97Zm4.97-.94c-.146.179-4.768,5.048-10.275,10.823L49.533-1613.2l-.034-1.1-.034-1.1.873-.94c.481-.515,4.7-4.891,9.38-9.715l8.507-8.775.929-.011.94-.011Zm3.38,1.78v2.1l-10.7,11.081c-5.876,6.089-11.215,11.607-11.864,12.256l-1.164,1.175v-4.712l11.428-12c11.338-11.9,11.439-12,11.864-12h.437Zm-.022,5.507-.034,1-11.808,12.346L49.533-1601.56l-.034-1.1-.034-1.1.985-1.052c2.171-2.328,22.6-23.427,22.677-23.427A3.066,3.066,0,0,1,73.184-1627.248Zm.022,5.6v2.339L62-1607.694c-6.167,6.4-11.506,11.932-11.864,12.3l-.66.672v-4.5L61.319-1611.6c6.5-6.816,11.842-12.39,11.864-12.39S73.206-1622.938,73.206-1621.651Zm0,5.664v.951l-11.54,12.11c-6.346,6.671-11.7,12.267-11.876,12.458l-.325.336.034-1.186.034-1.187,11.786-12.211c6.481-6.727,11.808-12.223,11.842-12.223A5.34,5.34,0,0,1,73.206-1615.988Zm0,6.1v2.787l-11.148,11.562c-6.134,6.358-11.473,11.887-11.864,12.29l-.716.727.022-2.7.034-2.7,11.8-12.39c6.492-6.805,11.82-12.379,11.842-12.379S73.206-1611.432,73.206-1609.888Zm-.705,7.824c-.392.4-5.563,5.82-11.5,12.043s-10.947,11.484-11.159,11.7l-.381.392.034-1.187.034-1.186,11.808-12.234,11.808-12.234.034.985.034,1Zm.683,3.962-.034,2.283-10.969,11.349c-6.022,6.246-11.35,11.752-11.831,12.245l-.873.9.034-2.194.022-2.194,11.752-12.323c6.469-6.772,11.786-12.323,11.842-12.323A16.136,16.136,0,0,1,73.184-1598.1Zm-.739,7.286c-.425.437-5.552,5.809-11.383,11.932s-10.823,11.361-11.1,11.641l-.492.5.034-1.187.034-1.186,11.808-12.223,11.808-12.222.034.974.034.985Zm.761,3.873v2.239l-11.831,12.267-11.842,12.267-.034-2.149-.022-2.138,1.421-1.5c.795-.828,6.089-6.38,11.786-12.357s10.387-10.857,10.443-10.857A15.491,15.491,0,0,1,73.206-1586.942Zm0,5.541v.94l-11.831,12.144-11.842,12.155L49.5-1557l-.034-.828L61.3-1570.1c6.514-6.738,11.853-12.256,11.876-12.256A8.422,8.422,0,0,1,73.206-1581.4Zm-1.366,8.786c-.761.783-4.925,5.115-9.268,9.615l-7.891,8.182H50.44l.951-.985c.526-.537,5.63-5.776,11.35-11.652l10.409-10.678.034,2.037.022,2.037Zm31.228,8.171,24.758,12.357L125-1549.223c-1.556,1.567-7.544,7.6-13.3,13.4l-10.454,10.543-7.947-9.581c-4.365-5.261-9.671-11.641-11.775-14.181l-3.839-4.6v-23.449l.313.134C78.175-1576.88,89.458-1571.25,103.068-1564.445Zm-30.5-4.634c-.358.392-3.548,3.761-7.085,7.477l-6.436,6.761-1.1.011-1.108.011,1.925-1.992c1.063-1.086,4.735-4.891,8.16-8.439l6.223-6.458.034.962.034.951Zm.638,4.578v2.854l-3.268,3.4-3.28,3.414-2.731.011H61.2l.6-.649c2.541-2.686,11.327-11.887,11.361-11.887S73.206-1566.068,73.206-1564.5Zm-.515,7.365c-.3.324-.907.974-1.354,1.444l-.817.873h-1.7l2.16-2.25,2.171-2.261.034.817.034.806Zm.515,2.093c0,.157-.078.224-.246.224-.224,0-.235-.011-.034-.224a1.067,1.067,0,0,1,.246-.224A.5.5,0,0,1,73.206-1555.043Zm-23.169,5.093c-.481.492-.582.425-.459-.313,0-.045.2-.078.425-.078h.414Zm3.962.3c-2.216,2.362-4.343,4.567-4.4,4.567a4.433,4.433,0,0,1-.034-1.086l.034-1.1,1.533-1.545,1.533-1.533h1.992Zm7.152-.437c-.325.414-11.484,11.943-11.551,11.943a20.019,20.019,0,0,1-.045-2.239l.011-2.25.6-.66c.325-.369,1.959-2.1,3.615-3.85l3.022-3.19h2.272l2.272-.011Zm4.141.1c-.19.2-3.783,3.974-7.969,8.372s-7.667,8.014-7.712,8.036a3.52,3.52,0,0,1-.078-1.063v-1.1l7.051-7.3,7.04-7.309H65.64Zm6.66-.257c-.056.157-22.3,23.169-22.341,23.125a19.552,19.552,0,0,1-.034-2.082l.022-2.026,5.675-5.955c3.123-3.268,7.219-7.566,9.122-9.559l3.447-3.6h2.082A9.971,9.971,0,0,1,71.952-1550.241Zm1.254,2.082v.94l-11.719,12.3c-6.458,6.76-11.775,12.3-11.831,12.312a3.127,3.127,0,0,1-.123-1.007l-.022-1.041,1.186-1.231c.66-.683,5.966-6.178,11.808-12.234s10.622-10.991,10.656-10.991A5.34,5.34,0,0,1,73.206-1548.159Zm55.27,7.208c-.571.593-5.9,6.111-11.842,12.267s-10.835,11.215-10.879,11.227a15.549,15.549,0,0,1-.078-2.519l.022-2.552.638-.671c4.007-4.253,19.442-20.416,21.031-22.027l2.082-2.093.034,2.641.022,2.653Zm-55.27-1.533v2.384l-11.775,12.2c-6.469,6.7-11.786,12.189-11.808,12.178s-.045-1.018-.056-2.216l-.011-2.171.985-1.041c5.887-6.2,22.6-23.706,22.632-23.706S73.206-1543.783,73.206-1542.484Zm55.718,5.339c-.336.347-5.686,5.966-11.9,12.48l-11.3,11.865-.034-1.1-.034-1.086,1.1-1.164c.6-.638,5.955-6.2,11.9-12.357l10.8-11.182.034.951.034.951Zm-55.718.324v1L61.453-1523.5c-6.469,6.783-11.8,12.334-11.842,12.334a3.852,3.852,0,0,1-.022-1.119l.056-1.119,11.752-12.2c6.469-6.7,11.764-12.189,11.786-12.189S73.206-1537.358,73.206-1536.821Zm56.3,3.515v2.16l-11.831,12.256c-6.5,6.738-11.864,12.279-11.92,12.29a9.561,9.561,0,0,1-.067-1.936l.034-1.981,11.864-12.458c6.525-6.85,11.876-12.469,11.9-12.469S129.506-1534.482,129.506-1533.306ZM73.206-1531v2.451L61.453-1516.36c-6.469,6.7-11.8,12.2-11.842,12.223a15.694,15.694,0,0,1-.045-2.294l.045-2.328.571-.615c1.992-2.127,22.934-24.065,22.979-24.065C73.184-1533.441,73.206-1532.344,73.206-1531Zm55.774,4.656c-.291.313-5.652,5.932-11.9,12.491l-11.361,11.92-.034-1.1-.034-1.1,1.265-1.332c.694-.739,6.055-6.29,11.9-12.346l10.633-11.025.034.951.034.951Zm-55.774,1.119v.951l-11.719,12.29c-6.458,6.772-11.775,12.312-11.82,12.323a2.728,2.728,0,0,1-.1-1.052v-1.063l11.775-12.2c6.469-6.7,11.786-12.189,11.808-12.189A3.862,3.862,0,0,1,73.206-1525.225Zm54.867,5.932c-.784.806-6.122,6.335-11.876,12.29s-10.465,10.835-10.488,10.835-.045-.772-.045-1.712v-1.7l11.9-12.48,11.887-12.469.034,1.88.022,1.892Zm-54.867-.56v2.059L61.453-1505.6c-6.469,6.693-11.786,12.189-11.842,12.211a11.363,11.363,0,0,1-.056-1.9l.034-1.914,11.764-12.357c6.481-6.783,11.8-12.346,11.82-12.346S73.206-1520.983,73.206-1519.853Zm55.326,4.365c-.537.56-5.9,6.178-11.9,12.48l-10.913,11.45-.034-1.086-.034-1.086.537-.593c.291-.336,5.652-5.9,11.9-12.368l11.361-11.764.034.963.034.974Zm-55.326,1.019v.951l-11.775,12.357c-6.481,6.794-11.808,12.346-11.842,12.323a5.632,5.632,0,0,1,0-1.153l.056-1.108,11.73-12.167c6.458-6.682,11.764-12.155,11.786-12.155A5.338,5.338,0,0,1,73.206-1514.469Zm56.3,2.317v2.048L119.2-1499.415c-5.675,5.876-11.036,11.439-11.92,12.357l-1.612,1.668v-3.828l11.9-12.48c6.537-6.861,11.9-12.48,11.92-12.491S129.506-1513.271,129.506-1512.152Zm-57.4,6.626c-.6.627-5.9,6.1-11.764,12.178s-10.689,11.058-10.734,11.058a13.232,13.232,0,0,1-.045-2.093l.034-2.093,1.03-1.074c.571-.593,5.865-6.156,11.775-12.357l10.745-11.271.034,2.261.022,2.261Zm57.4-1.3v.985l-7.41,7.779c-4.074,4.264-9.436,9.894-11.92,12.5l-4.522,4.723.034-1.164.034-1.175,11.864-12.312c6.525-6.772,11.876-12.312,11.9-12.312S129.506-1507.361,129.506-1506.824Zm-57.05,5.2c-3.593,3.817-22.8,23.919-22.856,23.919a4.781,4.781,0,0,1-.056-1.052l.011-1.063.828-.9c.459-.492,5.764-6.01,11.8-12.256l10.969-11.361.034.951.034.963Zm57.05.3v2.115l-11.036,11.45c-6.078,6.3-11.439,11.853-11.92,12.346l-.884.9v-4.029L117.541-1491c6.525-6.839,11.887-12.446,11.92-12.446S129.506-1502.493,129.506-1501.317Zm-56.3,3.626v2.384L61.442-1483.14c-6.469,6.682-11.8,12.156-11.831,12.156a14.629,14.629,0,0,1-.056-2.138l.022-2.149.649-.705c.694-.761,22.9-24.087,22.956-24.1C73.195-1500.086,73.206-1499.012,73.206-1497.691Zm46.931,11.965c-5.16,5.115-10.532,10.432-11.932,11.82l-2.552,2.53.034-.459c.034-.437.47-.907,11.9-12.737l11.864-12.3.034.929.034.918Zm-46.931-6.246v.951l-9.872,10.353-9.872,10.353H51.223l1.119-1.153c.616-.627,5.54-5.708,10.947-11.3s9.838-10.152,9.872-10.152A5.34,5.34,0,0,1,73.206-1491.971Zm56.3,1.5v2.227l-8.641,8.965-8.652,8.965H106.84l1.959-1.948c9.133-9.077,20.617-20.438,20.662-20.438C129.483-1492.7,129.506-1491.692,129.506-1490.472Zm-56.3,3.962v2.16l-6.738,7-6.727,6.984-2.015.033a9.944,9.944,0,0,1-1.959-.067c.034-.1,17.349-18.267,17.4-18.267C73.195-1488.669,73.206-1487.7,73.206-1486.509Zm56.3,1.589v.951l-6.514,6.828-6.5,6.828h-1a4.259,4.259,0,0,1-.985-.056c0-.078,14.886-15.5,14.954-15.5A5.339,5.339,0,0,1,129.506-1484.92Zm-56.3,3.85v1l-4.611,4.858-4.623,4.847-1.052.033-1.041.034,1.657-1.735c6.5-6.772,9.615-10.006,9.648-10.018C73.195-1482.066,73.206-1481.618,73.206-1481.07Zm55.2,5.541c-.593.627-1.981,2.048-3.067,3.179l-1.97,2.037-2.328-.022-2.328-.033,5.361-5.63,5.373-5.63.034,2.485.022,2.485Zm-56.624,3.716-1.433,1.5H66.121l.6-.649c.336-.347,1.914-2.015,3.515-3.694l2.91-3.067.034,2.205.022,2.194Zm56.748.436-.985,1.063h-1.981l1.948-2.015,1.936-2.015.034.951.034.963Zm-55.326.728c0,.3-.034.336-.358.336H72.49l.325-.336a2.186,2.186,0,0,1,.358-.336C73.195-1470.985,73.206-1470.839,73.206-1470.649Z"/></g></svg>