<svg xmlns="http://www.w3.org/2000/svg" width="1596.306" height="2992.524" viewBox="0 0 1596.306 2992.524">
  <g id="Groupe_80" data-name="Groupe 80" transform="translate(-2541.489 3564.262)">
    <g id="rm-c-bg-pattern" transform="translate(2497.849 94.77) rotate(180)">
      <path id="Intersection_1" data-name="Intersection 1" d="M-3446.336,2251.161c-39.173-8.968-91.391-40.007-117.713-136.963-12.717-46.832-14.093-87.994-4.212-125.838,9.226-35.338,28.334-67.7,58.41-98.934,50.843-52.8,127.451-97.318,223.867-151.046-53-72.04-128.436-147.762-223.575-223.948-115.287-92.321-219.37-153.063-220.407-153.667a17,17,0,0,1-8.469-14.654v-.149a16.928,16.928,0,0,1,2.3-8.446,17.007,17.007,0,0,1,23.249-6.164c1.06.615,107.337,62.64,224.586,156.53,69.028,55.276,128.418,110.7,176.518,164.73q31.058,34.887,55.863,69.049c95.022-52.8,205.276-114.368,321.955-198.183a425.429,425.429,0,0,1,9.178-75.761c12.4-58.453,24.192-117.236,33.183-174.378-60.776,11.029-126.43,15.382-196.354,12.971-86.241-2.974-159.556-20.121-217.9-50.965-53.234-28.139-92.432-66.527-116.5-114.1-40.319-79.677-31.915-178.132,21.935-256.941a276.838,276.838,0,0,1,108.476-93.282c47.88-23.01,100.817-31.9,157.344-26.43,54.529,5.278,101.873,17.734,140.714,37.026,37.6,18.674,68.575,44.387,92.064,76.426,44.033,60.057,63.775,144.183,60.352,257.186-1.1,36.407-4.616,74.958-9.677,114.239,97.832-24.852,180.484-69.215,244.51-131.973,83.45-81.8,106.792-167.027,107.018-167.879a17.014,17.014,0,0,1,20.776-12.1,17,17,0,0,1,12.125,20.735c-.99,3.787-25.289,93.782-114.644,182.092-52.248,51.636-116.043,91.98-189.616,119.909a661.4,661.4,0,0,1-85.276,25.788c-9.605,64.083-22.571,128.974-35.247,188.73a390.31,390.31,0,0,0-6.6,42.376c45.167-33.9,91.157-71.277,137.443-112.865,54.515-48.983,109.571-86.793,163.64-112.384,50.485-23.893,100.318-37.275,148.114-39.775,86.854-4.529,166.151,27.557,223.295,90.39,55.6,61.131,85.56,146.363,82.206,233.839-3.616,94.321-45.454,182.947-117.805,249.55-71.333,65.667-155.544,105.2-243.527,114.316a386.732,386.732,0,0,1-122.1-6.783,393.739,393.739,0,0,1-111.5-42.765,393.828,393.828,0,0,1-92.374-72.755,382.706,382.706,0,0,1-66.961-98.172,379.7,379.7,0,0,1-35.4-135.147c-109.811,77.152-213.32,135.111-303.4,185.176,22.408,34.152,39.9,67.567,52.3,99.99,20.736,54.192,24.333,113.629,10.4,171.889-12.43,51.987-37.973,101.308-73.868,142.633-49.979,57.54-112.082,90.227-168.387,90.228A135.614,135.614,0,0,1-3446.336,2251.161Zm-39.012-338.14c-52.909,54.944-67.057,114.24-45.874,192.266,17.337,63.858,49.316,102.836,92.477,112.717,50.368,11.531,115.3-18.314,165.426-76.025,55.217-63.571,99.288-170.527,57.376-280.057-11.768-30.754-28.668-62.7-50.436-95.523C-3361.749,1819.506-3437.335,1863.161-3485.348,1913.021Zm1038.219-646.926c-91.066,4.764-191.622,54.382-290.8,143.493A2060.548,2060.548,0,0,1-2899.9,1540.829c2.174,124.395,67.092,236.87,178.4,300.288,111.031,63.258,284.2,80.653,437.252-60.238,144.407-132.935,129.811-329.549,33.473-435.477-47.011-51.688-111.226-79.683-182.072-79.683Q-2439.947,1265.719-2447.129,1266.095Zm-925.212-382.6c-46.851,68.566-54.387,153.782-19.668,222.391,45.133,89.194,153.532,141.2,305.228,146.426,71.746,2.475,138.847-2.573,200.474-14.883,19.829-144.947,18.017-276.112-42.953-359.272-42.226-57.592-110.466-90.206-208.623-99.706q-13.829-1.339-27.425-1.333C-3250.018,777.117-3326.025,815.711-3372.341,883.495Z" transform="translate(2099 -76)" fill="#fff" stroke="rgba(0,0,0,0)" stroke-miterlimit="10" stroke-width="1" opacity="0.1"/>
    </g>
    <g id="rm-c-bg-pattern-2" data-name="rm-c-bg-pattern" transform="translate(4181.435 -4230.77)">
      <circle id="Ellipse_3" data-name="Ellipse 3" cx="18.425" cy="18.425" r="18.425" transform="translate(-389.636 775.048)" fill="#f19103"/>
      <path id="Intersection_1-2" data-name="Intersection 1" d="M-3446.336,2251.161c-39.173-8.968-91.391-40.007-117.713-136.963-12.717-46.832-14.093-87.994-4.212-125.838,9.226-35.338,28.334-67.7,58.41-98.934,50.843-52.8,127.451-97.318,223.867-151.046-53-72.04-128.436-147.762-223.575-223.948-115.287-92.321-219.37-153.063-220.407-153.667a17,17,0,0,1-8.469-14.654v-.149a16.928,16.928,0,0,1,2.3-8.446,17.007,17.007,0,0,1,23.249-6.164c1.06.615,107.337,62.64,224.586,156.53,69.028,55.276,128.418,110.7,176.518,164.73q31.058,34.887,55.863,69.049c95.022-52.8,205.276-114.368,321.955-198.183a425.429,425.429,0,0,1,9.178-75.761c12.4-58.453,24.192-117.236,33.183-174.378-60.776,11.029-126.43,15.382-196.354,12.971-86.241-2.974-159.556-20.121-217.9-50.965-53.234-28.139-92.432-66.527-116.5-114.1-40.319-79.677-31.915-178.132,21.935-256.941a276.838,276.838,0,0,1,108.476-93.282c47.88-23.01,100.817-31.9,157.344-26.43,54.529,5.278,101.873,17.734,140.714,37.026,37.6,18.674,68.575,44.387,92.064,76.426,44.033,60.057,63.775,144.183,60.352,257.186-1.1,36.407-4.616,74.958-9.677,114.239,97.832-24.852,180.484-69.215,244.51-131.973,83.45-81.8,106.792-167.027,107.018-167.879a17.014,17.014,0,0,1,20.776-12.1,17,17,0,0,1,12.125,20.735c-.99,3.787-25.289,93.782-114.644,182.092-52.248,51.636-116.043,91.98-189.616,119.909a661.4,661.4,0,0,1-85.276,25.788c-9.605,64.083-22.571,128.974-35.247,188.73a390.31,390.31,0,0,0-6.6,42.376c45.167-33.9,91.157-71.277,137.443-112.865,54.515-48.983,109.571-86.793,163.64-112.384,50.485-23.893,100.318-37.275,148.114-39.775,86.854-4.529,166.151,27.557,223.295,90.39,55.6,61.131,85.56,146.363,82.206,233.839-3.616,94.321-45.454,182.947-117.805,249.55-71.333,65.667-155.544,105.2-243.527,114.316a386.732,386.732,0,0,1-122.1-6.783,393.739,393.739,0,0,1-111.5-42.765,393.828,393.828,0,0,1-92.374-72.755,382.706,382.706,0,0,1-66.961-98.172,379.7,379.7,0,0,1-35.4-135.147c-109.811,77.152-213.32,135.111-303.4,185.176,22.408,34.152,39.9,67.567,52.3,99.99,20.736,54.192,24.333,113.629,10.4,171.889-12.43,51.987-37.973,101.308-73.868,142.633-49.979,57.54-112.082,90.227-168.387,90.228A135.614,135.614,0,0,1-3446.336,2251.161Zm-39.012-338.14c-52.909,54.944-67.057,114.24-45.874,192.266,17.337,63.858,49.316,102.836,92.477,112.717,50.368,11.531,115.3-18.314,165.426-76.025,55.217-63.571,99.288-170.527,57.376-280.057-11.768-30.754-28.668-62.7-50.436-95.523C-3361.749,1819.506-3437.335,1863.161-3485.348,1913.021Zm1038.219-646.926c-91.066,4.764-191.622,54.382-290.8,143.493A2060.548,2060.548,0,0,1-2899.9,1540.829c2.174,124.395,67.092,236.87,178.4,300.288,111.031,63.258,284.2,80.653,437.252-60.238,144.407-132.935,129.811-329.549,33.473-435.477-47.011-51.688-111.226-79.683-182.072-79.683Q-2439.947,1265.719-2447.129,1266.095Zm-925.212-382.6c-46.851,68.566-54.387,153.782-19.668,222.391,45.133,89.194,153.532,141.2,305.228,146.426,71.746,2.475,138.847-2.573,200.474-14.883,19.829-144.947,18.017-276.112-42.953-359.272-42.226-57.592-110.466-90.206-208.623-99.706q-13.829-1.339-27.425-1.333C-3250.018,777.117-3326.025,815.711-3372.341,883.495Z" transform="translate(2099 -76)" fill="#fff" stroke="rgba(0,0,0,0)" stroke-miterlimit="10" stroke-width="1" opacity="0.1"/>
    </g>
  </g>
</svg>
