<svg xmlns="http://www.w3.org/2000/svg" xmlns:xlink="http://www.w3.org/1999/xlink" width="1357.981" height="1188.424" viewBox="0 0 1357.981 1188.424">
  <defs>
    <clipPath id="clip-path">
      <rect id="Rectangle_1524" data-name="Rectangle 1524" width="1175.648" height="680.054" transform="translate(490 1007)" fill="none"/>
    </clipPath>
  </defs>
  <g id="Illustration" transform="translate(683.685 1046.218) rotate(-149)" opacity="0.5">
    <g id="Groupe_de_masques_129" data-name="Groupe de masques 129" transform="translate(-841 -962)" clip-path="url(#clip-path)">
      <path id="Tracé_319" data-name="Tracé 319" d="M412.943,289.881c-15.54-24.961-.714-50.02,26.44-51.449S500.836,250.579,568,250.579s146.487-3.572,116.476-24.295-200.795-22.152-237.952-8.574S653.04,229.857,683.051,232s31.441,15.007,31.441,15.007c-6.337,44.615,21,55.035,80.747,65.025,47.589,7.958,137-17.864-4.485-55.022-103.525-27.188-80.032,16.435-76.977,50.021,1.23,13.521-.714,35.728,77.889,46.447,44.916,6.125,58.332-5.716,61.581-16.992,2.234-7.748.54-16.98-6.039-21.645-39.032-27.683-88.61-34.964-110.762-34.964-17.339,0-40.39,11.387-38.477,28.62,1.9,17.086,14.289,37.518,57.253,49.269,83.605,22.865,92.894-2.858,92.894-64.312s-60.024-65.025-105.042-80.743C578.5,155.359,412.939,187.6,370.784,210.564c-14.292,5.716-55.022,23.581-70.028,32.156s-40.18,35.519-22.867,73.6,158.635-.715,106.47-7.861-79.317,25.01-85.034,37.872,23.581,12.862,38.587,12.147,98.611-21.437,75.029-54.306S294.325,290.6,277.89,308.46s-8.574,9.289,2.143,34.3,42.875,33.586,92.895,18.58,63.6-33.586,51.449-72.173-96.468-35.014-153.633-15.006S162.751,315.069,135.3,355.544,85.322,510.237,175.724,531.977s119.645-79.185,52.515-99.2S110.01,450.1,59.232,503.817-26.928,685.247-84.49,714.726-177.335,729.357-198,688.89s8.974-95.277,59.8-130.419S54.354,452.618-7.417,379.68-185.01,406.825-158.808,457.3s106.521-4.293,73.725-71.3-69.2-122.308-51.9-192.1" transform="translate(759.719 881.509)" fill="none" stroke="#fff" stroke-linecap="round" stroke-linejoin="round" stroke-width="3"/>
    </g>
  </g>
</svg>
