<svg xmlns="http://www.w3.org/2000/svg" width="29" height="29.001" viewBox="0 0 29 29.001">
  <path id="Tracé_127" data-name="Tracé 127" d="M9.668,14.5A4.833,4.833,0,1,1,14.5,19.334,4.833,4.833,0,0,1,9.668,14.5m-2.613,0A7.446,7.446,0,1,0,14.5,7.055,7.446,7.446,0,0,0,7.055,14.5M20.5,6.759A1.741,1.741,0,1,0,22.242,5.02,1.741,1.741,0,0,0,20.5,6.759M8.642,26.3a8.01,8.01,0,0,1-2.693-.5A4.51,4.51,0,0,1,4.281,24.72,4.482,4.482,0,0,1,3.2,23.053a8.01,8.01,0,0,1-.5-2.693c-.07-1.529-.084-1.988-.084-5.86s.015-4.33.084-5.86a8.047,8.047,0,0,1,.5-2.693A4.51,4.51,0,0,1,4.281,4.28,4.477,4.477,0,0,1,5.949,3.2a8.01,8.01,0,0,1,2.693-.5c1.529-.07,1.988-.084,5.859-.084s4.33.015,5.86.084a8.047,8.047,0,0,1,2.693.5A4.5,4.5,0,0,1,24.721,4.28a4.5,4.5,0,0,1,1.085,1.668,8.01,8.01,0,0,1,.5,2.693c.07,1.53.084,1.988.084,5.86s-.014,4.33-.084,5.86a8.04,8.04,0,0,1-.5,2.693A4.8,4.8,0,0,1,23.053,25.8a8.01,8.01,0,0,1-2.693.5c-1.529.07-1.988.084-5.86.084s-4.33-.014-5.859-.084M8.522.088A10.636,10.636,0,0,0,5,.761,7.115,7.115,0,0,0,2.434,2.434,7.1,7.1,0,0,0,.761,5a10.636,10.636,0,0,0-.673,3.52C.016,10.068,0,10.563,0,14.5s.016,4.432.088,5.978A10.636,10.636,0,0,0,.761,24a7.09,7.09,0,0,0,1.673,2.569A7.111,7.111,0,0,0,5,28.24a10.642,10.642,0,0,0,3.52.673c1.547.07,2.04.088,5.978.088s4.432-.016,5.978-.088A10.636,10.636,0,0,0,24,28.24,7.414,7.414,0,0,0,28.24,24a10.606,10.606,0,0,0,.673-3.52c.07-1.547.087-2.04.087-5.978s-.016-4.432-.087-5.978A10.636,10.636,0,0,0,28.24,5a7.131,7.131,0,0,0-1.673-2.569A7.111,7.111,0,0,0,24,.761,10.619,10.619,0,0,0,20.48.088C18.934.018,18.44,0,14.5,0S10.07.016,8.522.088" fill="#fff"/>
</svg>
