<svg xmlns="http://www.w3.org/2000/svg" width="29" height="27.712" viewBox="0 0 29 27.712">
  <path id="Tracé_126" data-name="Tracé 126" d="M0,3.221A3.014,3.014,0,0,1,.98.912,3.594,3.594,0,0,1,3.527,0,3.487,3.487,0,0,1,6.018.9,3.157,3.157,0,0,1,7,3.305a2.948,2.948,0,0,1-.952,2.239,3.6,3.6,0,0,1-2.575.924H3.443A3.426,3.426,0,0,1,.952,5.544,3.1,3.1,0,0,1,0,3.221ZM.364,27.714V9.015H6.578v18.7Zm9.657,0h6.214V17.273a4.03,4.03,0,0,1,.224-1.512,4.059,4.059,0,0,1,1.19-1.61,3.041,3.041,0,0,1,2-.658q3.135,0,3.135,4.227v9.993H29V16.993q0-4.143-1.959-6.284a6.684,6.684,0,0,0-5.179-2.141,6.352,6.352,0,0,0-5.626,3.107v.056h-.028l.028-.056V9.015H10.021q.056.9.056,5.57T10.021,27.714Z" transform="translate(0 -0.002)" fill="#fff"/>
</svg>
