<?xml version="1.0" encoding="utf-8"?>
<!-- Generator: Adobe Illustrator 24.3.0, SVG Export Plug-In . SVG Version: 6.00 Build 0)  -->
<svg version="1.1" id="Calque_1" xmlns="http://www.w3.org/2000/svg" xmlns:xlink="http://www.w3.org/1999/xlink" x="0px" y="0px"
	 viewBox="0 0 2000 2000" style="enable-background:new 0 0 2000 2000;" xml:space="preserve">
<style type="text/css">
	.st0{opacity:0.5;fill:none;stroke:#8EB6A2;stroke-width:20;stroke-miterlimit:10;enable-background:new    ;}
	.st1{fill:none;stroke:#1D1D1B;stroke-width:20;stroke-miterlimit:10;}
	.st2{fill:none;stroke:#1D1D1B;stroke-width:20;stroke-linejoin:round;stroke-miterlimit:10;}
	.st3{fill:#1D1D1B;stroke:#1D1D1B;stroke-width:7;stroke-miterlimit:10;}
</style>
<g id="_x5F_rings">
	<path class="st0" d="M1961.1,1004.9c4.7,511.2-324.3,934.2-948.6,959.9c-535,22-1012.8-469.4-973.6-997.4
		C82.3,382,497,184.2,993.8,42.1C1534.9-112.6,1955.3,374.7,1961.1,1004.9z"/>
	<path class="st1" d="M1946.2,939c134.2,519.9-261.5,1173.1-946,1030.4c-567.6-118.3-1106-462.6-960.9-965.4
		C237.6,316.8,516.6-42.2,1035,49.6C1337.5,103.1,1775.9,279.6,1946.2,939z"/>
</g>
<g id="_x5F_letter">
	<g>
		<path class="st2" d="M718.3,411L718.3,411l492,0.3c0,0,173.7-0.3,176.7,197.9c3.2,213.8-185.2,221.3-185.2,221.3
			c-28.4,4.9-254.5,0.1-259.4,0l0,0l447.8,206.1l0,0v629.2l0,0h-223.9l0,0v-419.5l0,0l-223.9-209.7l0,0v629.2l0,0H714.7l0,0
			L718.3,411z"/>
		<path class="st3" d="M1166.3,1246.3l221.3-207.3c1-0.9,2.6-0.2,2.6,1.1v625.5c0,0.1-0.1,0.2-0.2,0.2h-223.6
			c-0.1,0-0.2-0.1-0.2-0.2L1166.3,1246.3C1166.2,1246.4,1166.3,1246.4,1166.3,1246.3z"/>
		<polygon class="st3" points="942.3,1036.7 942.3,1665.9 714.7,1665.9 716.7,1036.7 		"/>
		<line class="st1" x1="942.3" y1="1036.7" x2="942.3" y2="830.5"/>
	</g>
</g>
</svg>
