<?xml version="1.0" encoding="utf-8"?>
<!-- Generator: Adobe Illustrator 23.0.1, SVG Export Plug-In . SVG Version: 6.00 Build 0)  -->
<svg version="1.1" id="Calque_1" xmlns="http://www.w3.org/2000/svg" xmlns:xlink="http://www.w3.org/1999/xlink" x="0px" y="0px"
	 viewBox="0 0 700 270" style="enable-background:new 0 0 700 270;" xml:space="preserve">
<style type="text/css">
	.st0{fill:#FFFFFF;}
</style>
<path class="st0" d="M1.6,11c0,0,8.1,0,8.1,0c0,2.4,0,10.2,0,12.7C10.1,149.1,9.6,259,9.6,259c0,0-7.9-0.1-7.9-0.1
	C1.7,259,1.6,11,1.6,11z"/>
<path class="st0" d="M83,46.1c0,0,3-3.7,7.6-9.5c-1.7-1.5-3.2-2.7-4.4-3.6c-3.4-2.5-9.7-7.1-18.9-9.1c-1.9-0.4-3.2-0.6-5-0.8
	c-8.6-1.1-14.9-0.2-16.3-0.1c-2.9,0.4-6,0.8-10,2.4c-1.9,0.7-4.8,1.9-8,4.4c-1.2,1-3.4,2.7-5.4,5.6c-0.5,0.7-2.6,3.9-3.7,8.7
	c-1.2,5.5-0.3,10,0.1,11.5c0.4,1.6,0.9,3.5,2.2,5.7c2.1,3.5,5,5.4,7.4,6.9c0.9,0.6,3.3,2,8,3.7c4.9,1.8,6.6,1.8,14.6,3.7
	c0.6,0.2,5.4,1.3,11.5,3.3c8.1,2.6,10.2,3.9,11.8,5.7c0.8,1,3,3.5,3.2,7.3c0.2,3.5-1.5,6.1-2.5,7.6c-1.9,2.9-4.3,4.5-5.4,5.2
	c-3.6,2.3-6.9,2.7-9.9,3.2c-4.5,0.6-8,0.2-10.8-0.2c-2-0.3-5.8-0.8-10.3-2.6c-2.1-0.8-6.6-2.7-11-6.5c-1.4-1.2-4.8-4.4-4.8-4.4
	c-2.7,3.5-5.4,7.1-8,10.6c1.4,1.5,3.3,3.4,5.8,5.3c3.2,2.5,6,4,7.3,4.7c4.8,2.5,8.8,3.5,11.9,4.3c4.5,1.1,8.1,1.5,9.3,1.6
	c7.1,0.7,12.6-0.1,13.9-0.3c4.6-0.7,11.2-1.7,18-6.4c2.5-1.7,5.8-4,8.4-8.4c3.7-6.3,3.4-12.5,3.2-14.9c-0.1-2.2-0.5-6.3-3-10.8
	c-0.5-0.9-2.3-3.9-5.7-6.6c-1.9-1.5-3.5-2.3-6.4-3.7c-3.9-1.9-7.1-3-8-3.3c-3.7-1.2-4.3-1-11.8-2.9c-1.2-0.3-3.1-0.8-7.1-1.9
	c-6.2-1.7-8.1-2.2-10.5-3.4c-3.7-1.8-4.8-3.2-5.5-4.1c-0.4-0.6-1.6-2.3-1.8-4.8c-0.2-2.3,0.6-4.1,0.9-4.9c0.5-1.2,1.4-2.7,3.7-4.5
	c5.3-4.3,11.2-5.3,13.3-5.6c1.1-0.1,4.3-0.5,8.4,0.1c5.8,0.8,10.2,3.1,13.8,5c1.1,0.6,2.7,1.4,4.6,2.8C80.3,43.9,83,46.1,83,46.1z"
	/>
<path class="st0" d="M99.5,119.1c0,0,2.5,0,7.5,0c3.8,0,7.5,0,7.5,0c0,0,12.9-32.4,12.9-32.4c0,0,42.3,0.1,42.3,0.1
	c0,0,12.7,32.4,12.7,32.4c0,0,15.5,0.2,15.5,0.2c0,0-41.4-97.8-41.4-97.8c0,0-15.7,0.2-15.7,0.2c-12.7,29.2-18.8,43.2-18.8,43.2
	c0,0,11.7,6.3,11.7,6.3c0,0,14.7-35.8,14.7-35.8c0,0,14.6,35.7,14.6,35.7c0,0-29.3,0.1-29.3,0.1c0,0-11.7-6.3-11.7-6.3
	C122.1,64.8,99.5,119.1,99.5,119.1z"/>
<path class="st0" d="M266.5,119.5c0,0,0-4,0-11.5c-13.5,0-27.1,0-40.6,0.1c0.1-49.7,0.1-88,0.1-88l0,0c0,0-13.6,0.2-13.6,0.2
	c0,0,0,0,0,0l0,0c0,0-0.1,99.4-0.1,99.4l0,0C212.3,119.6,266.5,119.5,266.5,119.5L266.5,119.5z"/>
<path class="st0" d="M347.1,22.8c0,0,5.1,0,13.1,0c0,22.8,0,45.6-0.1,68.5c-0.3,2.4-1.1,5.9-3.1,9.7c-0.6,1.2-2.7,5.2-6.9,9
	c-5,4.6-10.1,6.4-13.3,7.6c-7.1,2.5-13,2.6-16.8,2.6c-6.5,0-13.9,0-22-4.3c0,0-9.5-5-14.5-13.7c-1.7-2.9-2.5-5.4-2.5-5.4
	s-0.4-1.1-1.4-6c-0.1-22.6-0.2-45.1-0.3-67.7c0,0,3.4,0,6.8-0.1c2.9,0,6.8-0.1,6.8-0.1c0,21.8-0.1,43.6-0.1,65.4
	c0.2,1.4,0.6,3.1,1.3,5.1c0.1,0.3,0.9,2.3,2.1,4.3c2.9,4.6,7.3,7.3,8.6,8.1c6.2,3.6,12.2,3.5,15.7,3.5c3.4-0.1,10.1-0.2,15.9-4.4
	c2.8-2.1,5-4.9,5.3-5.3c1.9-2.4,3-4.7,3.4-5.5c0,0,0.3-0.7,2.1-5.1C347.1,46,347.1,22.8,347.1,22.8z"/>
<path class="st0" d="M371.5,22.9c0,0,0,10.8,0,10.8l0,0c0,0,30.2,0.2,30.2,0.2l0,0c0,0-0.3,85.7-0.3,85.7l0,0c0,0,13,0,13,0l0,0
	c0,0-0.1-85.8-0.1-85.8l0,0c0,0,28.6-0.2,28.6-0.2l0,0c0,0-0.1-10.9-0.1-10.9l0,0C442.8,22.8,371.5,22.9,371.5,22.9L371.5,22.9z"/>
<path class="st0" d="M460.4,23.1c0,0,13.2-0.1,13.2-0.1l0,0c0,0-1.8,74.2-1.8,74.2l0,0c0,0-9.1-0.1-9.1-0.1l0,0
	C462.8,97.1,460.4,23.1,460.4,23.1L460.4,23.1z"/>
<path class="st0" d="M466.9,102.4c4.7,0,9.2,3.8,9.2,8.7c0,4.9-4.4,8.6-9,8.7c-4.8,0.1-9.4-3.9-9.3-8.9
	C458,106.2,462.3,102.5,466.9,102.4z"/>
<path class="st0" d="M21.8,240.6c-0.4,0.4-0.7,1.3,0,3.6c3.3,0,6.6,0,9.9-0.1c0-1.2,0-2.3,0-3.5c-1.2,0-2.4,0-3.6-0.1
	c-0.3-25.6-0.5-51.2-0.8-76.8c4.8,26.4,9.6,52.8,14.4,79.2c2.8,0.1,5.7,0.1,8.5,0.2c3.9-22.8,7.7-45.5,11.6-68.3
	c0,21.9,0.1,43.8,0.1,65.6c0.7,0,1.4,0,2.1,0.1c0.4-56.9,0.6-87.4,0.6-87.4c0-0.1,1.9,0,1.9,0c0,0,0.2,87.4,0.2,87.4l0,0
	c0,0,0,0,0,0c-0.6,0-1.6,0-2.7,0c-1.1,0-1.1,0-2.1-0.1c-1.2,0-4.6,0-3.5,0c0,1.2,0,2.4,0,3.6c4.9,0,9.8,0,14.7,0c0-1.2,0-2.3,0-3.5
	c-1.8,0-2.7,0-2.7,0c0,0,0-87.9,0-87.9c0,0,1.6,0,2.8,0.1c0,0,0,0,0,0c0-1-0.1-1.9-0.1-2.9c0,0-14.7,0-14.7,0c0,2.1,0,3.2,0,3.2
	c0,0,3.3,0,3.3,0c0,0-12.1,78.4-12.1,78.4C40.4,180.1,35.5,153,35.5,153c0,0-4.8,0.1-4.8,0.1c0,0,5.2,30.3,14.9,87.4
	c0,0-0.8,0-0.9,0c-0.4,0-0.9,0-0.9,0c0,0-15.5-87.4-15.5-87.4c0,0,0.8,0,2.3,0c2.4,0,4.8-0.1,4.8-0.1c0,0-0.3-1.6-0.7-4.1
	c0,0-14.2,0-14.2,0c0,0,0,4.2,0,4.2c0,0,4.6,0.1,4.6,0.1c0,0,0.9,87.5,0.9,87.5C26.2,240.6,22.9,239.6,21.8,240.6z"/>
<path class="st0" d="M100.3,148.3c4.9,0.2,8.4,2.2,10.3,3.3c5,2.9,8,7,8.8,8.7c0.1,0.2,1.3,2.6,1.3,2.6c0,0,0,1.8,0,1.8
	c0,0-4.4,0.1-4.4,0.1c-0.1-0.3-0.2-0.6-0.4-1.1c0,0-0.5-1.2-1.1-2.3c-1.2-2-3.6-4.1-3.8-3.9c-0.2,0.2,1.4,1.6,2.6,4.6
	c0.4,1.1,1,3.1,1,3.1l0,0c0,44.7,0,62,0,62c0,0,0,0,0,0c0,0,0,0,0,0c0,0-0.1,1.3-0.3,2.1c-0.5,1.9-1.8,4.1-1.8,4.1
	c-1.4,2.4-2.9,3.9-3.6,4.6c-1,1-1.9,1.6-1.8,1.7c0.1,0.1,1.8-0.9,3.5-2.2c2.4-1.9,3.6-3.8,4.4-5c1-1.5,1.6-2.9,1.6-4.5v0
	c0,0-0.1-63.2-0.1-63.2c0,0,4.4-0.1,4.4-0.1c0,0,0,22.5,0,66.2c0,0,0,0,0,0c-0.3,0.4-3.3,5.6-6.4,8.5c-5,4.6-11.8,4.7-13.9,4.7
	c-6.9,0.1-13.1-2.8-16.4-6.1c-2.2-2.3-3.6-4.7-3.6-4.7c-1-1.7-2.2-4.5-2.2-4.5h0h0c0,0,0-3.5,0-3.5c0,0,2.6,0.1,2.6,0.1
	c0,0.8,0.1,1.4,0.1,1.8c0,0,0,0.2,0.2,1.4l0,0l0,0c0.3,1.1,0.3,1.1,0.3,1.1c0.4,1.4,2,3.1,2,3.1c2,2.5,4.7,4.7,4.9,4.6
	c0.1-0.1-1-1.2-3-4c-1-1.4-1.4-2.1-1.6-2.8c-0.4-1-0.7-2.5-0.7-2.5c0,0,0,0,0,0c0.2-21.9,0.2-28.8,0.2-30.8c0-0.6,0-3.8,0-8
	c0,0,0,0,0,0c0,0,4.7-1.5,4.7-1.5c0,0,0.2,37.6,0.2,37.6c0,0,0.3,0.8,0.3,0.8c1.8,4.4,5.5,8.5,5.5,8.5c3,3.4,4.6,5.1,6.5,5
	c1.3,0,2.3-0.9,4.2-2.6c0,0,4.4-3.8,6.9-9.7c0.1-0.2,0.4-0.9,0.3-0.6c0,0-0.1-60.8-0.1-60.8c0,0-0.4-1.5-0.7-2.3
	c-0.5-1.3-1.1-2.2-1.6-3.1c-1.7-2.6-3.6-4.1-4.1-4.5c-2-1.6-3.2-2.5-4.8-2.5c-1.5,0-2.7,0.8-4.8,2.5c-3.5,2.7-5.9,6-6.7,8.2
	c-0.1,0.3-0.9,2.4-0.9,2.4c0,0-0.1,21.1-0.1,21.1c0,0-4.7,1.5-4.7,1.5c0,0,0-8.1,0.1-23c0.5-2.5,1.2-4.4,1.7-5.4
	c0.7-1.4,1.5-2.3,1.7-2.6c1.4-1.7,2.8-2.6,2.7-2.6c0,0-2.7,1.3-4.7,4.1c-0.1,0.2-0.8,1.3-2.2,3.6c-0.5,0.8-0.7,1.2-0.9,1.8
	c-0.3,0.8-0.8,3.2-0.6,2.4c0,0-0.2,54.9-0.2,57.8c0,0-2.6-0.1-2.6-0.1c0,0,0-20.7,0.1-59.7c0,0,0,0,0,0c0.1-0.2,1.6-4.1,3.4-6.9
	c0.4-0.6,2-3,4.7-5.3C87.4,152.4,92.7,148.1,100.3,148.3z"/>
<path class="st0" d="M122.2,149.7c0,0,5.4,0,15.5,0c0,1.5,0,3.1,0,4.6c-0.9,0-1.8,0-2.7-0.1c0,29,0,58,0,86.9c1,0,1.9,0.1,2.9,0.1
	c0,1.1,0,2.2,0,3.3c-10.2-0.1-15.5-0.1-15.5-0.1c0,0,0-1.3-0.1-3.2c2.4,0,3.9-0.1,3.9-0.1c0-24.6-0.1-37.5-0.1-37.5
	c0,0,2.7,0.2,2.7,0.2c0,0,0,37.4,0,37.4c0,0,1.3-0.1,1.3-0.1c0,0,0-87.2,0-87.2c0,0-1.2,0-1.2,0c0,0,0,49.8,0,49.8
	c0,0-2.7-0.2-2.7-0.2c0,0-0.1-37.3-0.1-49.5c-1.2,0-2.4,0-3.7,0C122.3,152.7,122.3,151.2,122.2,149.7z"/>
<path class="st0" d="M206.1,201.2c6.9,0,13.8,0.1,20.8,0.1l0,0c0.1,1.3,0.2,3.1,0.1,5.3c-0.1,2.6-0.6,8.4-3.5,15.2
	c-1.1,2.6-2.6,6.2-5.8,10.1c-1.7,2.1-5.1,6.2-11.1,9c-2.1,1-6.8,2.9-12.9,2.9c-11.7,0-19.7-7.3-21.9-9.3
	c-8.1-7.5-10.3-16.9-11.8-23.2c-0.2-0.9-1.2-5.3-1.5-11.1c-0.1-2.1-0.3-8,1.1-15.5c0.8-4.3,1.9-9.9,5.2-16.4c1.1-2.1,3-5.8,6.6-9.8
	c2.3-2.5,5-5.5,9.6-7.7c4.8-2.3,9-2.4,11.6-2.5c3-0.1,8.9-0.2,15,3.1c7.6,4,11.2,10.8,12.6,13.4c0.9,1.8,2.9,6.2,4.7,11.3
	c0.1,0.4,0.3,0.8,0.3,1c-6.6,2.8-13.3,5.7-19.9,8.5c-0.6-1.2-1.5-2.8-2.9-4.6c-1.6-2-2.6-3.3-4.4-4.2c-3.8-2-7.9-0.5-8.5-0.3
	c-2.8,1.1-4.4,3-5.6,4.4c-4.5,5.6-4.7,12.3-4.8,15.3c-0.1,2.8-0.1,7,2.1,11.7c1,2.1,2.6,5.2,6.2,7.1c2.8,1.5,5.3,1.4,5.8,1.4
	c3.9-0.1,6.5-2.2,7.6-3.1c3.1-2.5,4.3-5.7,4.6-7C206.2,204.3,206.2,202.4,206.1,201.2z"/>
<path class="st0" d="M236.4,165.6c-0.3-0.8-0.9-0.6-2.4-1.7c-2.1-1.6-3.1-3.6-3.4-4.2c-0.2-0.5-0.9-2.1-1-4.4
	c-0.1-2.4,0.7-4.2,1.1-5.1c0.4-0.9,0.9-2.2,2.1-3.4c2.5-2.6,5.9-2.8,7-2.8c1.2-0.1,4.5-0.2,7.3,2c3,2.3,3.6,5.6,3.7,6.6
	c0.4,2.2,0.1,3.9-0.2,5.3c-1,4.5-3.5,7.4-4.1,7.9c-1.1,1.2-4.2,4.5-7.9,4.7c-0.9,0-3.7,0-3.7,0l0,0
	C234.9,170.5,237.1,167.4,236.4,165.6z"/>
<path class="st0" d="M299.9,148.6c0,2.5,0,5,0,7.5c0,6.9,0,13.8-0.1,20.7c-15.4,0-23.6-0.1-23.6-0.1c0,0-1.6,0.6-2.6,1.4
	c-0.9,0.7-1.6,2.1-1.6,3.5c0,2.4,2,3.7,2.4,3.9c0.4,0.2,1.5,0.4,1.5,0.4h0c0,0,19.3,0.1,19.3,0.1c0,0,0.1,21.3,0.1,21.3
	c-3.4,0-6.7,0-10.1,0c-3.3,0-6.5,0-9.8,0c0,0-0.7,0.3-1.3,0.6c0,0-0.5,0.3-1,0.8c-0.7,0.6-1.3,1.9-1.3,3.3c0,0.1,0.1,2.1,1.7,3.3
	c1.1,0.8,2.3,0.9,2.8,0.9c6.3,0.3,23.5,0,23.5,0c0,0,0.1,28.4,0.1,28.4c0,0-28.9-0.1-28.9-0.1c0,0-5.6-0.5-9.6-3.7
	c-2.5-2-4-4.8-4.7-6.1c-0.3-0.6-0.7-1.4-1.2-2.6c-2.3-5.7-2.6-11.4-2.6-11.4c0,0-0.1-37.2-0.1-48.8c0,0,0,0,0,0
	c0,0,0.5-8.3,4.8-14.8c2.2-3.3,4.6-4.9,5.4-5.5c0.9-0.6,2.4-1.5,4.5-2.1c1.6-0.4,4-0.8,4-0.8C271.7,148.8,281.4,148.7,299.9,148.6z"
	/>
<path class="st0" d="M347.3,173.6c-0.3-0.4-1.5-1.8-3.6-2.2c-0.4-0.1-2.7-0.5-4.5,0.9c-2.1,1.7-1.9,4.6-1.8,5.3
	c0.1,1.8,1,3.1,1.4,3.7c0.9,1.3,1.8,1.9,4,3.3c2.5,1.6,4.9,3.4,7.3,5c2.3,1.6,2.9,2,3.8,2.8c2,1.7,3.2,3.2,3.6,3.7
	c0.5,0.6,1.9,2.4,3.1,5c1.7,3.6,2.2,6.6,2.4,8.4c0.9,5.9,0,10.7-0.7,13.3c-0.6,2.4-1.4,5.6-3.8,9.1c-2.1,3.1-4.4,5-6.2,6.4
	c-3.9,3.1-7.6,4.6-8.6,5c-5.1,2-9.3,2.2-11.8,2.3c-2.2,0.1-5.9,0.2-10.5-1c-3.6-1-6-2.3-9.6-4.2c-2.7-1.5-6.4-4.4-6.4-4.4
	c0,0,13.6-17.2,13.6-17.2c0,0,0.9,1.1,1.6,1.6c1,0.8,2,1,3,1.3c2,0.5,3.7,0.2,4.4,0c1.2-0.3,2.3-0.5,3.3-1.5
	c1.7-1.7,1.6-4.2,1.6-4.5c-0.2-2.8-2.4-4.7-4.1-6.1c-1.8-1.5-2.6-1.5-4.8-2.9c-3-1.8-4.8-3.7-7.7-6.8c-1.9-2.1-4-4.2-6-7.6
	c-0.7-1.1-1.9-3.1-2.8-5.6c-2.5-6.9-1.1-13.3-0.3-16.5c0.5-2.3,1.5-6.6,4.7-11.1c2.9-4.2,6.2-6.6,7.5-7.5c4.3-2.9,8.3-3.9,10.9-4.5
	c7.1-1.6,14.9-1.1,19.3,0.8c0.9,0.4,4.3,2.1,8.3,4.5c0,0,0,0,0,0C357.9,152.5,347.3,173.5,347.3,173.6z"/>
<path class="st0" d="M359.7,148.4L359.7,148.4c0,0,62.3-0.1,62.3-0.1l0,0c0,0,0.2,28.3,0.2,28.3l0,0c0,0-17.5,0.1-17.5,0.1l0,0
	c0,0-0.1,67.2-0.1,67.2l0,0c0,0-26.5,0.2-26.5,0.2l0,0c0,0,0-67.4,0-67.4l0,0c0,0-18.3,0-18.3,0l0,0
	C359.7,176.8,359.7,148.4,359.7,148.4z"/>
<path class="st0" d="M453.2,148.6c0,0,0,33.6,0,96.3c7.3,0,14.7,0.1,22,0.1c0-23,0.1-46.1,0.1-69.1c3.3-0.1,5.4-0.1,6.6-0.1
	c0.1,0,0.3,0,0.5,0c1.8,0.2,3.5,1.2,4.5,2.5c2,2.6,1.1,6.1-0.1,8c-1.1,1.8-2.8,2.7-3.2,2.8c-0.2,0-0.8,0.2-0.6,0.1
	c-1.6,0-3.3,0-4.9,0c0,7.1,0.1,14.1,0.1,21.2c3.9,11.5,7.8,23.1,11.7,34.6l0,0c8,0,15.9,0.1,23.9,0.1c0,0-12.6-35.3-12.6-35.3
	l0.1-4.3c0,0,1.9-1.2,2.1-1.3c2.3-1.4,3.9-3.9,4.3-4.4c1.9-2.7,2.6-6.2,2.8-6.9c1.4-6.3,1.3-12,1.3-12c-0.1-3.9-0.2-7.9-1.8-12.8
	c-1.1-3.2-3-8.7-8.3-13.4c-5-4.4-10.7-5.9-12.7-6c-0.1,0-3.1-0.2-3.1-0.2l0,0C485.9,148.5,454,148.6,453.2,148.6z"/>
<path class="st0" d="M565.7,148.8c0,2.5,0,5,0,7.5c0,6.9,0,13.8-0.1,20.7c-15.4,0-23.6-0.1-23.6-0.1c0,0-1.6,0.6-2.6,1.4
	c-0.9,0.7-1.6,2.1-1.6,3.5c0,2.4,2,3.7,2.4,3.9c0.4,0.2,1.5,0.4,1.5,0.4l0,0c0,0,19.3,0.1,19.3,0.1c0,0,0.1,21.3,0.1,21.3
	c-3.4,0-6.7,0-10.1,0c-3.3,0-6.5,0-9.8,0c0,0-0.7,0.3-1.3,0.6c0,0-0.5,0.3-1,0.8c-0.7,0.6-1.3,1.9-1.3,3.3c0,0.1,0.1,2.1,1.7,3.3
	c1.1,0.8,2.3,0.9,2.8,0.9c6.3,0.3,23.5,0,23.5,0c0,0,0.1,28.4,0.1,28.4c0,0-28.9-0.1-28.9-0.1c0,0-5.6-0.5-9.6-3.7
	c-2.5-2-4-4.8-4.7-6.1c-0.3-0.6-0.7-1.4-1.2-2.6c-2.3-5.7-2.6-11.4-2.6-11.4c0,0-0.1-37.2-0.1-48.8c0,0,0,0,0,0s0.5-8.3,4.8-14.8
	c2.2-3.3,4.6-4.9,5.4-5.5c0.9-0.6,2.4-1.5,4.5-2.1c1.6-0.4,4-0.8,4-0.8C537.5,148.9,547.1,148.9,565.7,148.8z"/>
<path class="st0" d="M576.3,244.9c-0.1-5,0-27.3,0.1-72c0-0.4,0-1.4,0.2-2.7c0.6-5.6,3-9.5,3.7-10.5c1.3-2,4.3-6,9.6-8.6
	c4.5-2.2,8.5-2.3,10.9-2.3c2.8,0,6-0.1,9.6,1.6c1.3,0.6,4.8,2.5,7.3,6.3c1.5,2.3,3,6,3,6l0,0l0,0c0.2-1.1,0.7-2.8,1.8-4.6
	c1.6-2.8,3.7-4.3,5-5.1c5.5-3.8,11.5-3.9,13.6-4c3,0,8.6-0.1,13.8,3.5c3.8,2.7,5.7,6.1,6.6,8c1.9,3.6,2.4,6.7,2.9,9.9
	c0.8,4.8,0.6,8.5,0.6,9.4c-0.6,16.5-0.5,64.9-0.5,64.9c-8.2,0.1-16.4,0.2-24.6,0.2c-0.1-41.3-0.2-62.3-0.2-62.3
	c0.1,1.5,0.1-3.1-0.7-4.4c-0.1-0.2-1.1-1.6-2.4-1.5c-1.2,0.1-2,1.2-2.2,1.6c-0.8,1.2-0.9,5.6-1,4.2c0,0,0,20.4-0.1,62.3
	c-16.6,0.1-24.6,0.1-24.6,0.1c0,0-0.1-55.6-0.1-63.3c0-0.7,0-2.9-1.4-4.2c-0.3-0.3-1.1-0.9-2.3-0.9c-1.3,0-2.2,0.8-2.4,1
	c-1,1-1.2,5.4-1.2,4l0,0c0,0-0.1,63.3-0.1,63.3l0,0C597,245,592.8,245,576.3,244.9z"/>
<path class="st0" d="M677.2,150.1c0,0,21.2,0,21.2,0l0,0c0,0-0.1,94.9-0.1,94.9l0,0c0,0-20.9,0.1-20.9,0.1l0,0
	C677.4,245.1,677.2,150.1,677.2,150.1L677.2,150.1z"/>
</svg>
