<?xml version="1.0" encoding="utf-8"?>
<!-- Generator: Adobe Illustrator 23.0.1, SVG Export Plug-In . SVG Version: 6.00 Build 0)  -->
<svg version="1.1" id="Calque_1" xmlns="http://www.w3.org/2000/svg" xmlns:xlink="http://www.w3.org/1999/xlink" x="0px" y="0px"
	 viewBox="0 0 2146.9 2146.9" style="enable-background:new 0 0 2146.9 2146.9;" xml:space="preserve">
<style type="text/css">
	.st0{opacity:0.4;fill:#FFFFFF;stroke:#000000;stroke-miterlimit:10;enable-background:new    ;}
	.st1{fill:none;stroke:#000000;stroke-width:40;stroke-miterlimit:10;}
	.st2{fill:none;stroke:#000000;stroke-miterlimit:10;}
	.st3{fill:none;stroke:#000000;stroke-width:6;stroke-miterlimit:10;}
	.st4{stroke:#000000;stroke-width:14;stroke-miterlimit:10;}
	.st5{stroke:#000000;stroke-miterlimit:10;}
</style>
<rect x="712.9" y="309.5" class="st0" width="251.7" height="1510.4"/>
<path class="st1" d="M964.6,309.5H1215c12.3-0.9,120.5-7,195.4,78.8c62.1,71.1,57.7,155.3,56.5,171.7c1.1,14.9,6.4,104.4-61.4,177.7
	c-75,81.1-177.5,75.3-190.5,74.3c-83.9,0.1-167.7,0.3-251.6,0.4"/>
<line class="st1" x1="963.5" y1="812.5" x2="1467.4" y2="1064.3"/>
<line class="st2" x1="1215.5" y1="1318" x2="1215.1" y2="1819.9"/>
<line class="st3" x1="1467.7" y1="1064.5" x2="1192.1" y2="1340.1"/>
<path class="st4" d="M962.2,1066.1c-82.9,85.9-165.8,171.8-248.6,257.7c0,13.7,0,27.4,0,41.1c82.9-86.9,165.8-173.9,248.6-260.8
	V1066.1z"/>
<path class="st4" d="M962.2,1167.9c-82.9,85.9-165.8,171.8-248.6,257.7c0,13.7,0,27.4,0,41.1c82.9-86.9,165.8-173.9,248.6-260.8
	V1167.9z"/>
<path class="st4" d="M963.1,1270.2c-82.9,85.9-165.8,171.8-248.6,257.7c0,13.7,0,27.4,0,41.1c82.9-86.9,165.8-173.9,248.6-260.8
	V1270.2z"/>
<path class="st4" d="M963.1,1366.3c-82.9,85.9-165.8,171.8-248.6,257.7c0,13.7,0,27.4,0,41.1c82.9-86.9,165.8-173.9,248.6-260.8
	V1366.3z"/>
<path class="st4" d="M962.2,1466.7c-82.9,85.9-165.8,171.8-248.6,257.7c0,13.7,0,27.4,0,41.1c82.9-86.9,165.8-173.9,248.6-260.8
	V1466.7z"/>
<path class="st4" d="M963.1,1567.3c-81.5,84.2-162.9,168.5-244.4,252.7c13.2,0,26.5,0,39.7,0c68.2-71.6,136.5-143.1,204.7-214.7
	V1567.3z"/>
<path class="st4" d="M963.1,1665.1c-49.7,51.6-99.4,103.1-149.1,154.7c12.6,0.1,25.2,0.2,37.8,0.3c37.1-39,74.2-78,111.3-117V1665.1
	z"/>
<path class="st4" d="M964.6,1761.9c-18.5,19.4-36.9,38.7-55.4,58.1c12.5,0,24.9,0,37.4,0c6-6.7,12-13.4,17.9-20.1v-38H964.6z"/>
<path class="st4" d="M960.8,976.8c-27,28-54,56.1-80.9,84.1c11.8,0,23.5,0,35.3,0c15.2-16.3,30.5-32.7,45.7-49
	C960.8,1000.1,960.8,988.5,960.8,976.8z"/>
<path class="st4" d="M960.5,866.5c-62.5,64.8-125.1,129.6-187.6,194.4c12.9,0,25.9,0,38.8,0c49.5-52,99.1-104,148.6-156
	C960.4,892.1,960.5,879.3,960.5,866.5z"/>
<path class="st4" d="M960.8,770.9C879.2,855.4,797.6,940,716,1024.6c-0.1,11.9-0.1,23.8-0.2,35.7c81.6-83.8,163.3-167.5,244.9-251.3
	C960.7,796.3,960.7,783.6,960.8,770.9z"/>
<line class="st1" x1="965.8" y1="1063.8" x2="1193.8" y2="1338.4"/>
<path class="st4" d="M960.8,670.9c-81.5,84.4-163.1,168.8-244.6,253.3c0,13.7,0,27.4,0.1,41.1c81.5-85.4,163-170.8,244.5-256.1
	C960.7,696.4,960.8,683.7,960.8,670.9z"/>
<path class="st4" d="M960.9,570.6C879.3,655.2,797.6,739.8,716,824.4c0,13.7-0.1,27.5-0.1,41.2c81.7-85.5,163.3-171,245-256.5
	C960.9,596.3,960.9,583.4,960.9,570.6z"/>
<path class="st4" d="M960.7,461.7c-81.5,84.5-163,169-244.5,253.5c0,13.7,0,27.3,0.1,41c81.5-85.5,163-171,244.4-256.5
	C960.7,487.1,960.7,474.4,960.7,461.7z"/>
<path class="st4" d="M962.7,358.4c-82.1,85-164.3,170.1-246.4,255.1c0,13.7,0,27.4,0,41.1c81.7-85.4,163.4-170.8,245.1-256.2
	C961.8,385.1,962.2,371.8,962.7,358.4z"/>
<path class="st4" d="M903.1,316.7c-62.3,64.3-124.7,128.6-187,192.9c0.1,13.7,0.1,27.5,0.2,41.2c75-78.7,149.9-157.4,224.9-236
	C928.5,315.4,915.8,316.1,903.1,316.7z"/>
<path class="st4" d="M797.3,318.6c-27.1,30.5-54.1,61-81.2,91.5c0,14.6-0.1,29.2-0.1,43.7c40.8-45.6,81.5-91.2,122.3-136.8
	C824.6,317.6,810.9,318.1,797.3,318.6z"/>
<path class="st4" d="M1464.6,1151.4c-82.9,85.9-165.8,171.8-248.6,257.7c0,13.7,0,27.4,0,41.1c82.9-86.9,165.8-173.9,248.6-260.8
	V1151.4z"/>
<path class="st4" d="M1465.3,1247.8c-82.9,85.9-165.8,171.8-248.6,257.7c0,13.7,0,27.4,0,41.1c82.9-86.9,165.8-173.9,248.6-260.8
	V1247.8z"/>
<path class="st5" d="M1464.6,1071.2c-82.7,83.1-165.5,166.2-248.2,249.3c-0.2,10.4-0.3,20.9-0.5,31.3
	c82.9-86.9,165.8-173.9,248.6-260.8C1464.6,1084.4,1464.6,1077.8,1464.6,1071.2z"/>
<path class="st4" d="M1465.3,1340.5c-82.9,85.9-165.8,171.8-248.6,257.7c0,13.7,0,27.4,0,41.1c82.9-86.9,165.8-173.9,248.6-260.8
	V1340.5z"/>
<path class="st4" d="M1465.3,1435.8c-82.9,85.9-165.8,171.8-248.6,257.7c0,13.7,0,27.4,0,41.1c82.9-86.9,165.8-173.9,248.6-260.8
	V1435.8z"/>
<path class="st4" d="M1465.3,1533.2c-82.9,85.9-165.8,171.8-248.6,257.7c0,9,0,18,0,27c82.9-82.2,165.8-164.5,248.6-246.7V1533.2z"
	/>
<path class="st4" d="M1465.3,1631.2c-60.4,62.6-120.7,125.1-181.1,187.7c12.8,0,25.6,0,38.4,0c47.6-49.9,95.1-99.8,142.7-149.7
	V1631.2L1465.3,1631.2z"/>
<path class="st4" d="M1465.3,1734.6c-27.4,28.4-54.7,56.7-82.1,85.1c12.4,0,24.7,0.1,37.1,0.1c15-15.7,30-31.5,45-47.2V1734.6z"/>
<path class="st4" d="M867,1066.1c-50.8,52.7-101.7,105.4-152.5,158.1c0,13.7,0,27.4,0,41.1c63.3-66.4,126.7-132.9,190-199.3
	C892,1066,879.5,1066.1,867,1066.1z"/>
<path class="st4" d="M768.6,1066.4c-18.5,18.9-37.1,37.8-55.6,56.7c0,13.7,0,27.4,0,41.1c31.2-32.8,62.3-65.5,93.5-98.3
	C793.8,1066.1,781.2,1066.3,768.6,1066.4z"/>
<rect x="712.6" y="309.3" class="st1" width="251.7" height="755.2"/>
<rect x="712.9" y="1064.7" class="st1" width="251.7" height="755.2"/>
<path class="st1" d="M1214.4,1819.3l253,0.7c0-252.5,0-505,0-757.5c-84.2,84.8-168.4,169.6-252.5,254.4L1214.4,1819.3z"/>
</svg>
