<?xml version="1.0" encoding="utf-8"?>
<!-- Generator: Adobe Illustrator 25.3.1, SVG Export Plug-In . SVG Version: 6.00 Build 0)  -->
<svg version="1.1" id="Calque_1" xmlns="http://www.w3.org/2000/svg" xmlns:xlink="http://www.w3.org/1999/xlink" x="0px" y="0px"
	 viewBox="0 0 1225.7 293.4" style="enable-background:new 0 0 1225.7 293.4;" xml:space="preserve">
<style type="text/css">
	.st0{fill:#ffffff;}
</style>
<g>
	<path class="st0" d="M1040.4,95.8c12.7,0,24.7,4.9,33.6,13.9l26.1-26.1c-15.9-15.9-37.1-24.7-59.7-24.7c-22.6,0-43.8,8.8-59.7,24.7
		c-15.9,15.9-24.7,37.1-24.7,59.7s8.8,43.8,24.7,59.7c16.5,16.5,38.1,24.7,59.7,24.7c21.6,0,43.2-8.2,59.7-24.7L1074,177
		c-18.5,18.6-48.7,18.5-67.3,0c-9-9-13.9-20.9-13.9-33.6s4.9-24.7,13.9-33.6C1015.7,100.8,1027.7,95.8,1040.4,95.8z"/>
	<path class="st0" d="M84.4,95.8c12.7,0,24.7,4.9,33.6,13.9l26.1-26.1C128.2,67.7,107,59,84.4,59s-43.8,8.8-59.7,24.7
		C8.8,99.6,0,120.8,0,143.4s8.8,43.8,24.7,59.7c15.9,15.9,37.1,24.7,59.7,24.7s43.8-8.8,59.7-24.7L118.1,177
		c-9,9-20.9,13.9-33.6,13.9S59.8,186,50.8,177c-9-9-13.9-20.9-13.9-33.6s4.9-24.7,13.9-33.6C59.8,100.8,71.7,95.8,84.4,95.8z"/>
	<path class="st0" d="M871.3,73.7C857.7,64.4,841.3,59,823.7,59c-46.6,0-84.4,37.9-84.4,84.4s37.9,84.4,84.4,84.4
		c17.6,0,34-5.4,47.6-14.7v11.7h36.9V58.6h-36.9V73.7z M823.7,191c-26.2,0-47.6-21.3-47.6-47.6s21.3-47.6,47.6-47.6
		s47.6,21.3,47.6,47.6S849.9,191,823.7,191z"/>
	<path class="st0" d="M474.5,58.6c-17.6,0-34,5.5-47.6,14.8V58.7H390v166.2h0h36.8v-81.8c0-26.2,21.3-47.6,47.6-47.6
		c26.3,0,47.6,21.4,47.6,47.6v81.8h36.8v-81.8C558.9,96.6,521,58.7,474.5,58.6z"/>
	<path class="st0" d="M261.4,58.7c-46.6,0-84.4,37.9-84.4,84.4s37.9,84.4,84.4,84.4s84.4-37.9,84.4-84.4S307.9,58.7,261.4,58.7z
		 M261.4,190.7c-26.2,0-47.6-21.3-47.6-47.6s21.3-47.6,47.6-47.6s47.6,21.3,47.6,47.6S287.6,190.7,261.4,190.7z"/>
	<path class="st0" d="M647.6,0h-36.8v209c0,46.6,37.9,84.4,84.4,84.4v-36.9c-26.2,0-47.6-21.3-47.6-47.6V95.3h47.6V58.5h-47.6V0z"/>
	<path class="st0" d="M1225.7,95.3V58.5h-47.6V0h-36.8v209c0,46.6,37.9,84.4,84.4,84.4v-36.9c-26.2,0-47.6-21.3-47.6-47.6V95.3
		H1225.7z"/>
</g>
</svg>
