<svg xmlns="http://www.w3.org/2000/svg" width="304" height="83" viewBox="0 0 304 83">
  <g id="Groupe_84" data-name="Groupe 84" transform="translate(-3770 641)">
    <rect id="Rectangle_1506" data-name="Rectangle 1506" width="304" height="83" transform="translate(3770 -641)" fill="none"/>
    <g id="Groupe_82" data-name="Groupe 82" transform="translate(5785.399 -801.149)">
      <path id="Tracé_150" data-name="Tracé 150" d="M-1034.873,229.754a11.487,11.487,0,0,1,8.176,3.386l6.333-6.333a20.385,20.385,0,0,0-14.509-6.01,20.383,20.383,0,0,0-14.509,6.01,20.384,20.384,0,0,0-6.01,14.509,20.384,20.384,0,0,0,6.01,14.508,20.454,20.454,0,0,0,14.509,6,20.455,20.455,0,0,0,14.509-6l-6.333-6.333a11.575,11.575,0,0,1-16.352,0,11.487,11.487,0,0,1-3.386-8.176,11.487,11.487,0,0,1,3.386-8.176A11.486,11.486,0,0,1-1034.873,229.754Z" transform="translate(-726.367 -44.626)" fill="#fff"/>
      <path id="Tracé_151" data-name="Tracé 151" d="M-1990.82,229.754a11.487,11.487,0,0,1,8.176,3.386l6.333-6.333a20.385,20.385,0,0,0-14.509-6.01,20.383,20.383,0,0,0-14.508,6.01,20.383,20.383,0,0,0-6.01,14.509,20.384,20.384,0,0,0,6.009,14.508,20.384,20.384,0,0,0,14.509,6.01,20.385,20.385,0,0,0,14.509-6.01l-6.333-6.333a11.487,11.487,0,0,1-8.176,3.386,11.487,11.487,0,0,1-8.176-3.386,11.488,11.488,0,0,1-3.386-8.176,11.486,11.486,0,0,1,3.387-8.176A11.485,11.485,0,0,1-1990.82,229.754Z" transform="translate(0 -44.626)" fill="#fff"/>
      <path id="Tracé_152" data-name="Tracé 152" d="M-1239.97,224.121a20.4,20.4,0,0,0-11.562-3.579,20.542,20.542,0,0,0-20.519,20.519,20.542,20.542,0,0,0,20.519,20.518A20.4,20.4,0,0,0-1239.97,258v2.848h8.956V220.46h-8.956Zm-11.562,28.5a11.575,11.575,0,0,1-11.562-11.562,11.575,11.575,0,0,1,11.562-11.562,11.575,11.575,0,0,1,11.562,11.562A11.575,11.575,0,0,1-1251.533,252.623Z" transform="translate(-562.363 -44.37)" fill="#fff"/>
      <path id="Tracé_153" data-name="Tracé 153" d="M-1600.805,220.4a20.441,20.441,0,0,0-11.569,3.609v-3.58h-8.956v40.388h8.956v-19.88a11.581,11.581,0,0,1,11.569-11.568,11.581,11.581,0,0,1,11.568,11.568v19.88h8.944v-19.88A20.584,20.584,0,0,0-1600.805,220.4Z" transform="translate(-295.223 -44.326)" fill="#fff"/>
      <path id="Tracé_154" data-name="Tracé 154" d="M-1813.872,220.52a20.542,20.542,0,0,0-20.519,20.518,20.542,20.542,0,0,0,20.519,20.518,20.541,20.541,0,0,0,20.518-20.518A20.541,20.541,0,0,0-1813.872,220.52Zm0,32.081a11.576,11.576,0,0,1-11.563-11.562,11.576,11.576,0,0,1,11.563-11.562,11.575,11.575,0,0,1,11.562,11.562A11.575,11.575,0,0,1-1813.872,252.6Z" transform="translate(-133.943 -44.416)" fill="#fff"/>
      <path id="Tracé_155" data-name="Tracé 155" d="M-1391.656,161.844h-8.956v50.787a20.542,20.542,0,0,0,20.518,20.519v-8.956a11.576,11.576,0,0,1-11.562-11.562V185.016h11.562V176.06h-11.562Z" transform="translate(-462.298)" fill="#fff"/>
      <path id="Tracé_156" data-name="Tracé 156" d="M-849.589,185.016V176.06h-11.562V161.844h-8.956v50.787a20.542,20.542,0,0,0,20.518,20.519v-8.956a11.576,11.576,0,0,1-11.562-11.562V185.016Z" transform="translate(-866.621)" fill="#fff"/>
    </g>
  </g>
</svg>
