<svg xmlns="http://www.w3.org/2000/svg" xmlns:xlink="http://www.w3.org/1999/xlink" width="299.711" height="80">
  <defs>
    <clipPath id="a">
      <path data-name="Rectangle 1547" fill="none" d="M0 0h299.711v80H0z"/>
    </clipPath>
  </defs>
  <g data-name="Groupe 145" clip-path="url(#a)" fill="#fff">
    <path data-name="Tracé 324" d="M178.287 34.264v4.063a22.767 22.767 0 1 0 0 37.591v3.16h9.937V34.264Zm-12.829 35.688a12.83 12.83 0 1 1 12.83-12.83 12.844 12.844 0 0 1-12.83 12.83"/>
    <path data-name="Tracé 325" d="M223.132 34.462a22.635 22.635 0 0 0-12.83 3.971V.198h-9.937v57.035a22.767 22.767 0 1 0 22.767-22.771m0 35.6a12.83 12.83 0 1 1 12.828-12.829 12.844 12.844 0 0 1-12.828 12.829"/>
    <path data-name="Tracé 326" d="M0 56.352V0h9.937v56.352a12.844 12.844 0 0 0 12.83 12.83v9.937A22.793 22.793 0 0 1 0 56.352"/>
    <path data-name="Tracé 327" d="M113.474 56.352V0h9.937v56.352a12.844 12.844 0 0 0 12.829 12.83v9.937a22.793 22.793 0 0 1-22.766-22.767"/>
    <path data-name="Tracé 328" d="M276.945 80a22.767 22.767 0 1 1 22.767-22.767A22.793 22.793 0 0 1 276.945 80m0-35.6a12.829 12.829 0 1 0 12.83 12.829 12.844 12.844 0 0 0-12.83-12.829"/>
    <path data-name="Tracé 329" d="M74.447 57.072a22.767 22.767 0 1 0-45.534 0c0 12.554 10.218 23.123 22.767 22.767 6.743-.191 14.695-3.992 18.589-8.51l-7.332-6.708c-2.472 2.7-7.665 5.281-11.256 5.281a12.851 12.851 0 0 1-12.388-9.5l34.924.1ZM51.68 44.242a12.851 12.851 0 0 1 12.075 8.5h-24.15a12.851 12.851 0 0 1 12.075-8.5"/>
  </g>
</svg>
