<?xml version="1.0" encoding="utf-8"?>
<!-- Generator: Adobe Illustrator 25.3.1, SVG Export Plug-In . SVG Version: 6.00 Build 0)  -->
<svg version="1.1" id="Calque_1" xmlns="http://www.w3.org/2000/svg" xmlns:xlink="http://www.w3.org/1999/xlink" x="0px" y="0px"
	 viewBox="0 0 1128.2 330.6" style="enable-background:new 0 0 1128.2 330.6;" xml:space="preserve">
<style type="text/css">
	.st0{fill:#ffffff;}
</style>
<g>
	<g>
		<circle class="st0" cx="562.9" cy="18.4" r="18.4"/>
		<path class="st0" d="M544.4,60.3v185.9h0c0,26.2-21.3,47.6-47.6,47.6c-12.7,0-24.7-4.9-33.6-13.9l-26.1,26.1
			c15.9,15.9,37.1,24.7,59.7,24.7c46.6,0,84.4-37.9,84.4-84.4h0V60.3H544.4z"/>
	</g>
	<path class="st0" d="M400.5,228.6c-46.6,0-84.4-37.9-84.4-84.4s37.9-84.4,84.4-84.4S485,97.7,485,144.2S447.1,228.6,400.5,228.6z
		 M400.5,96.6c-26.2,0-47.6,21.3-47.6,47.6s21.3,47.6,47.6,47.6s47.6-21.3,47.6-47.6S426.8,96.6,400.5,96.6z"/>
	<path class="st0" d="M84.4,59.5c-46.1,0-83.6,37.1-84.4,83h0v188.2h36.8V213.6c13.6,9.3,29.9,14.7,47.6,14.7
		c46.6,0,84.4-37.9,84.4-84.4S131,59.5,84.4,59.5z M84.4,191.5c-26.2,0-47.6-21.3-47.6-47.6s21.3-47.6,47.6-47.6
		s47.6,21.3,47.6,47.6S110.7,191.5,84.4,191.5z"/>
	<path class="st0" d="M201.2,143.9v81.8h36.8v-81.8c0-26.2,21.3-47.6,47.6-47.6V59.5C239.1,59.5,201.2,97.3,201.2,143.9z"/>
	<path class="st0" d="M954.6,96.2V59.3H907V0.8h-36.8v209c0,46.6,37.9,84.4,84.4,84.4v-36.9c-26.2,0-47.6-21.3-47.6-47.6V96.2H954.6
		z"/>
	<path class="st0" d="M814.5,143.5c0-46.6-37.9-84.4-84.4-84.4s-84.4,37.9-84.4,84.4s37.9,85.7,84.4,84.4
		c25-0.7,54.5-14.8,68.9-31.6l-27.2-24.9c-9.2,10-28.4,19.6-41.7,19.6c-22,0-40.5-15-45.9-35.2l129.5,0.4L814.5,143.5z M730,96
		c20.6,0,38.2,13.2,44.8,31.5h-89.6C691.9,109.1,709.4,96,730,96z"/>
	<path class="st0" d="M1056.9,225.6c-14.3,0-38.6-2.3-61.7-15.2l18-32.2c24,13.4,51.2,10.9,51.5,10.8l2.4-0.2
		c13.4-1.1,24.3-8,24.3-14.3s-10.7-13.7-24.4-13.7h-11.4c-15.4,0-30.1-4.7-41.3-13.1c-12.6-9.5-19.9-23.1-19.9-37.5
		s7.3-28,19.9-37.5c11.1-8.3,25.5-13,40.7-13.1c6.4-0.4,41.2-1.1,65.9,23.6l-26.1,26c-14-14-36.3-12.9-37.6-12.9l-0.9,0.1l-0.7,0
		c-13.7,0-24.4,7.4-24.4,13.7s10.7,13.7,24.4,13.7h11.4c15.4,0,30.1,4.7,41.3,13.1c12.6,9.5,19.9,23.1,19.9,37.5
		c0,14.3-7.3,28-19.9,37.5c-11,8.2-25.2,12.9-40.2,13.1C1066.1,225.3,1062.2,225.6,1056.9,225.6z"/>
</g>
</svg>
