<svg xmlns="http://www.w3.org/2000/svg" width="278" height="83" viewBox="0 0 278 83">
  <g id="Groupe_83" data-name="Groupe 83" transform="translate(-3783 517)">
    <rect id="Rectangle_1505" data-name="Rectangle 1505" width="278" height="83" transform="translate(3783 -517)" fill="none"/>
    <g id="rm-c-Project-text" transform="translate(3667.587 -676.09)">
      <g id="Groupe_75" data-name="Groupe 75" transform="translate(223.666 161.008)">
        <circle id="Ellipse_17" data-name="Ellipse 17" cx="4.463" cy="4.463" r="4.463" transform="translate(25.985)" fill="#fff"/>
        <path id="Tracé_142" data-name="Tracé 142" d="M580.932,221.318v45.026h0a11.523,11.523,0,0,1-19.67,8.148l-6.311,6.311a20.448,20.448,0,0,0,34.907-14.459h0V221.318Z" transform="translate(-554.947 -206.711)" fill="#fff"/>
      </g>
      <path id="Tracé_143" data-name="Tracé 143" d="M454.337,261.694a20.448,20.448,0,1,1,20.448-20.448A20.471,20.471,0,0,1,454.337,261.694Zm0-31.971a11.523,11.523,0,1,0,11.523,11.523A11.536,11.536,0,0,0,454.337,229.723Z" transform="translate(-239.543 -45.309)" fill="#fff"/>
      <path id="Tracé_144" data-name="Tracé 144" d="M138.233,220.46a20.468,20.468,0,0,0-20.439,20.11h-.008v45.572h8.925V257.789a20.444,20.444,0,1,0,11.523-37.329Zm0,31.971a11.523,11.523,0,1,1,11.523-11.523A11.536,11.536,0,0,1,138.233,252.431Z" transform="translate(0 -45.053)" fill="#fff"/>
      <path id="Tracé_145" data-name="Tracé 145" d="M319.019,240.908v19.8h8.925v-19.8a11.536,11.536,0,0,1,11.523-11.522V220.46A20.471,20.471,0,0,0,319.019,240.908Z" transform="translate(-152.495 -45.053)" fill="#fff"/>
      <path id="Tracé_146" data-name="Tracé 146" d="M1008.423,184.936v-8.925H996.9V161.844h-8.925v50.612a20.471,20.471,0,0,0,20.448,20.448v-8.925A11.536,11.536,0,0,1,996.9,212.456v-27.52Z" transform="translate(-659.429 -0.634)" fill="#fff"/>
      <path id="Tracé_147" data-name="Tracé 147" d="M804.287,240.558a20.448,20.448,0,1,0-40.9,0c0,11.275,9.178,20.768,20.448,20.448,6.056-.172,13.2-3.585,16.7-7.644l-6.585-6.025c-2.221,2.427-6.884,4.743-10.11,4.743a11.542,11.542,0,0,1-11.126-8.529l31.366.089ZM783.84,229.035a11.541,11.541,0,0,1,10.845,7.631h-21.69A11.541,11.541,0,0,1,783.84,229.035Z" transform="translate(-489.24 -44.787)" fill="#fff"/>
      <path id="Tracé_148" data-name="Tracé 148" d="M1127.308,260.888a31.15,31.15,0,0,1-14.951-3.688l4.356-7.79a23.736,23.736,0,0,0,12.464,2.622l.575-.037c3.258-.258,5.9-1.938,5.9-3.472s-2.58-3.318-5.906-3.318h-2.757a16.726,16.726,0,0,1-10.01-3.172,10.945,10.945,0,0,1,0-18.142,16.7,16.7,0,0,1,9.858-3.172c1.545-.087,9.981-.264,15.954,5.717l-6.316,6.307c-3.388-3.393-8.788-3.134-9.114-3.114l-.208.021-.163-.006c-3.326,0-5.906,1.784-5.906,3.318s2.58,3.318,5.906,3.318h2.757a16.726,16.726,0,0,1,10.01,3.172,10.945,10.945,0,0,1,0,18.142,16.676,16.676,0,0,1-9.745,3.17C1129.534,260.812,1128.587,260.888,1127.308,260.888Z" transform="translate(-753.533 -45.229)" fill="#fff"/>
    </g>
  </g>
</svg>
