<?xml version="1.0" encoding="utf-8"?>
<!-- Generator: Adobe Illustrator 25.2.2, SVG Export Plug-In . SVG Version: 6.00 Build 0)  -->
<svg version="1.1" id="Calque_1" xmlns="http://www.w3.org/2000/svg" xmlns:xlink="http://www.w3.org/1999/xlink" x="0px" y="0px"
	 viewBox="0 0 925.3 398.2" style="enable-background:new 0 0 925.3 398.2;" xml:space="preserve">
<style type="text/css">
	.st0{fill:#FFFFFF;}
	.st1{fill:#F39200;}
</style>
<g>
	<path class="st0" d="M612.5,60.6c-44.2,0-83.6,20.7-109.2,52.8c-25.6-32.2-65-52.8-109.2-52.8c-29.1,0-56.2,9-78.6,24.3V60.6h-60.9
		v139.5v135.1h60.9V200.1c0-43.4,35.3-78.6,78.6-78.6s78.6,35.3,78.6,78.6v135.1h0.2h60.7h0.2V200.1c0-43.4,35.3-78.6,78.6-78.6
		c43.4,0,78.6,35.3,78.6,78.6v135.1H752V200.1C752,123.2,689.4,60.6,612.5,60.6z"/>
	<path class="st0" d="M66.6,200.1v135.1h60.9V200.1c0-43.4,35.3-78.6,78.6-78.6V60.6C129.2,60.6,66.6,123.2,66.6,200.1z"/>
	<circle class="st1" cx="828.8" cy="306.5" r="30.4"/>
</g>
</svg>
