<?xml version="1.0" encoding="UTF-8"?>
<svg xmlns="http://www.w3.org/2000/svg" width="331.65" height="139.281" viewBox="0 0 331.65 139.281"><g id="Groupe_71" data-name="Groupe 71" transform="translate(-1826.776 -1846.772)"><g id="Groupe_70" data-name="Groupe 70" transform="translate(1980.671 1846.772)"><path id="Tracé_129" data-name="Tracé 129" d="M2488.724,1931.935v-19.852h8.948v19.852a11.566,11.566,0,0,0,11.552,11.552v8.948A20.523,20.523,0,0,1,2488.724,1931.935Z" transform="translate(-2488.724 -1897.438)" fill="#fff"/><circle id="Ellipse_13" data-name="Ellipse 13" cx="4.474" cy="4.474" r="4.474" transform="translate(0 0)" fill="#fff"/></g><path id="Tracé_130" data-name="Tracé 130" d="M2198.128,1912.082a20.468,20.468,0,0,0-16.044,7.762,20.459,20.459,0,0,0-27.6-4.186v-3.576h-8.948v40.353h8.948v-19.853a11.552,11.552,0,0,1,23.1,0v19.853h8.984v-19.853a11.552,11.552,0,0,1,23.1,0v19.853h8.948v-19.853A20.523,20.523,0,0,0,2198.128,1912.082Z" transform="translate(-245.29 -50.665)" fill="#fff"/><path id="Tracé_131" data-name="Tracé 131" d="M1826.776,1932.968v19.852h8.948v-19.852a11.565,11.565,0,0,1,11.552-11.552v-8.948A20.524,20.524,0,0,0,1826.776,1932.968Z" transform="translate(0 -50.957)" fill="#fff"/><path id="Tracé_132" data-name="Tracé 132" d="M1977.034,1931.233a20.5,20.5,0,1,0-41,0c0,11.3,9.2,20.821,20.5,20.5,6.072-.172,13.232-3.594,16.738-7.663l-6.6-6.04c-2.227,2.434-6.9,4.755-10.136,4.755a11.571,11.571,0,0,1-11.154-8.551l31.446.089Zm-20.5-11.552a11.572,11.572,0,0,1,10.873,7.651h-21.745A11.572,11.572,0,0,1,1956.533,1919.68Z" transform="translate(-82.727 -49.643)" fill="#fff"/><path id="Tracé_133" data-name="Tracé 133" d="M3080.988,2143.633v-49.7h8.948v49.7a11.566,11.566,0,0,0,11.552,11.552v8.948A20.523,20.523,0,0,1,3080.988,2143.633Z" transform="translate(-963.493 -194.022)" fill="#fff"/><path id="Tracé_134" data-name="Tracé 134" d="M1879.366,2171.31a20.468,20.468,0,0,0-16.044,7.762,20.459,20.459,0,0,0-27.6-4.186v-3.576h-8.948v40.354h8.948v-19.853a11.552,11.552,0,0,1,23.1,0v19.853h8.984v-19.853a11.552,11.552,0,0,1,23.1,0v19.853h8.948v-19.853A20.524,20.524,0,0,0,1879.366,2171.31Z" transform="translate(0 -241.552)" fill="#fff"/><path id="Tracé_135" data-name="Tracé 135" d="M2401.447,2172.025a20.421,20.421,0,0,0-11.559,3.606v-3.577h-8.948v40.353h8.948v-19.863a11.559,11.559,0,0,1,23.117,0v19.863h8.936v-19.863A20.566,20.566,0,0,0,2401.447,2172.025Z" transform="translate(-425.714 -242.093)" fill="#fff"/><path id="Tracé_136" data-name="Tracé 136" d="M2737.724,2192.584v19.853h8.948v-19.853a11.565,11.565,0,0,1,11.552-11.552v-8.948A20.524,20.524,0,0,0,2737.724,2192.584Z" transform="translate(-699.164 -242.138)" fill="#fff"/><path id="Tracé_137" data-name="Tracé 137" d="M2623.963,2116.251V2107.3H2612.41v-14.2h-8.948v51.06a20.524,20.524,0,0,0,20.5,20.5v-8.948a11.565,11.565,0,0,1-11.552-11.552v-27.908Z" transform="translate(-596.116 -178.606)" fill="#fff"/><path id="Tracé_138" data-name="Tracé 138" d="M2205.657,2191.234a20.5,20.5,0,1,0-41,0c0,11.3,9.2,20.822,20.5,20.5,6.071-.172,13.231-3.594,16.738-7.663l-6.6-6.04c-2.226,2.434-6.9,4.755-10.136,4.755a11.572,11.572,0,0,1-11.155-8.551l31.447.089Zm-20.5-11.552a11.571,11.571,0,0,1,10.873,7.65h-21.745A11.571,11.571,0,0,1,2185.156,2179.682Z" transform="translate(-259.562 -241.115)" fill="#fff"/><path id="Tracé_139" data-name="Tracé 139" d="M2905.853,2191.234a20.5,20.5,0,1,0-41,0c0,11.3,9.2,20.822,20.5,20.5,6.072-.172,13.232-3.594,16.738-7.663l-6.6-6.04c-2.226,2.434-6.9,4.755-10.135,4.755a11.573,11.573,0,0,1-11.155-8.551l31.447.089Zm-20.5-11.552a11.572,11.572,0,0,1,10.873,7.65h-21.746A11.571,11.571,0,0,1,2885.352,2179.682Z" transform="translate(-797.458 -241.115)" fill="#fff"/><circle id="Ellipse_14" data-name="Ellipse 14" cx="4.198" cy="4.198" r="4.198" transform="translate(2150.03 1962.518)" fill="#f19103"/></g></svg>