<?xml version="1.0" encoding="utf-8"?>
<!-- Generator: Adobe Illustrator 23.0.1, SVG Export Plug-In . SVG Version: 6.00 Build 0)  -->
<svg version="1.1" id="Calque_1" xmlns="http://www.w3.org/2000/svg" xmlns:xlink="http://www.w3.org/1999/xlink" x="0px" y="0px"
	 viewBox="0 0 883.9 1728" style="enable-background:new 0 0 883.9 1728;" xml:space="preserve">
<style type="text/css">
	.st0{opacity:0.4;fill:#FFFFFF;stroke:#000000;stroke-miterlimit:10;}
	.st1{fill:none;stroke:#000000;stroke-width:40;stroke-miterlimit:10;}
	.st2{fill:#FFFFFF;stroke:#000000;stroke-width:40;stroke-miterlimit:10;}
	.st3{fill:#FFFFFF;stroke:#000000;stroke-miterlimit:10;}
	.st4{fill:#FFFFFF;stroke:#000000;stroke-width:6;stroke-miterlimit:10;}
	.st5{stroke:#000000;stroke-width:14;stroke-miterlimit:10;}
	.st6{stroke:#000000;stroke-miterlimit:10;}
</style>
<rect x="64.7" y="108.9" class="st0" width="251.7" height="1510.4"/>
<path class="st1" d="M316.4,108.9h250.4c12.3-0.9,120.5-7,195.4,78.8c62.1,71.1,57.7,155.3,56.5,171.7
	c1.1,14.9,6.4,104.4-61.4,177.7c-75,81.1-177.5,75.3-190.5,74.3c-83.9,0.1-167.7,0.3-251.6,0.4"/>
<line class="st2" x1="315.3" y1="611.9" x2="819.2" y2="863.7"/>
<line class="st3" x1="567.3" y1="1117.4" x2="566.9" y2="1619.3"/>
<line class="st4" x1="819.5" y1="863.9" x2="543.9" y2="1139.5"/>
<path class="st5" d="M314,865.5c-82.9,85.9-165.8,171.8-248.6,257.7c0,13.7,0,27.4,0,41.1c82.9-86.9,165.8-173.9,248.6-260.8V865.5z
	"/>
<path class="st5" d="M314,967.3c-82.9,85.9-165.8,171.8-248.6,257.7c0,13.7,0,27.4,0,41.1c82.9-86.9,165.8-173.9,248.6-260.8V967.3z
	"/>
<path class="st5" d="M314.9,1069.6c-82.9,85.9-165.8,171.8-248.6,257.7c0,13.7,0,27.4,0,41.1c82.9-86.9,165.8-173.9,248.6-260.8
	V1069.6z"/>
<path class="st5" d="M314.9,1165.7c-82.9,85.9-165.8,171.8-248.6,257.7c0,13.7,0,27.4,0,41.1c82.9-86.9,165.8-173.9,248.6-260.8
	V1165.7z"/>
<path class="st5" d="M314,1266.1c-82.9,85.9-165.8,171.8-248.6,257.7c0,13.7,0,27.4,0,41.1c82.9-86.9,165.8-173.9,248.6-260.8
	V1266.1z"/>
<path class="st5" d="M314.9,1366.7c-81.5,84.2-162.9,168.5-244.4,252.7c13.2,0,26.5,0,39.7,0c68.2-71.6,136.5-143.1,204.7-214.7
	V1366.7z"/>
<path class="st5" d="M314.9,1464.5c-49.7,51.6-99.4,103.1-149.1,154.7c12.6,0.1,25.2,0.2,37.8,0.3c37.1-39,74.2-78,111.3-117V1464.5
	z"/>
<path class="st5" d="M316.4,1561.3c-18.5,19.4-36.9,38.7-55.4,58.1c12.5,0,24.9,0,37.4,0c6-6.7,12-13.4,17.9-20.1V1561.3z"/>
<path class="st5" d="M312.6,776.2c-27,28-54,56.1-80.9,84.1c11.8,0,23.5,0,35.3,0c15.2-16.3,30.5-32.7,45.7-49
	C312.6,799.5,312.6,787.9,312.6,776.2z"/>
<path class="st5" d="M312.3,665.9c-62.5,64.8-125.1,129.6-187.6,194.4c12.9,0,25.9,0,38.8,0c49.5-52,99.1-104,148.6-156
	C312.2,691.5,312.3,678.7,312.3,665.9z"/>
<path class="st5" d="M312.6,570.3C231,654.8,149.4,739.4,67.8,824c-0.1,11.9-0.1,23.8-0.2,35.7c81.6-83.8,163.3-167.5,244.9-251.3
	C312.5,595.7,312.5,583,312.6,570.3z"/>
<line class="st2" x1="317.6" y1="863.2" x2="545.6" y2="1137.8"/>
<path class="st5" d="M312.6,470.3C231.1,554.7,149.5,639.1,68,723.6c0,13.7,0,27.4,0.1,41.1c81.5-85.4,163-170.8,244.5-256.1
	C312.5,495.8,312.6,483.1,312.6,470.3z"/>
<path class="st5" d="M312.7,370c-81.6,84.6-163.3,169.2-244.9,253.8c0,13.7-0.1,27.5-0.1,41.2c81.7-85.5,163.3-171,245-256.5
	C312.7,395.7,312.7,382.8,312.7,370z"/>
<path class="st5" d="M312.5,261.1c-81.5,84.5-163,169-244.5,253.5c0,13.7,0,27.3,0.1,41c81.5-85.5,163-171,244.4-256.5
	C312.5,286.5,312.5,273.8,312.5,261.1z"/>
<path class="st5" d="M314.5,157.8c-82.1,85-164.3,170.1-246.4,255.1c0,13.7,0,27.4,0,41.1c81.7-85.4,163.4-170.8,245.1-256.2
	C313.6,184.5,314,171.2,314.5,157.8z"/>
<path class="st5" d="M254.9,116.1c-62.3,64.3-124.7,128.6-187,192.9c0.1,13.7,0.1,27.5,0.2,41.2c75-78.7,149.9-157.4,224.9-236
	C280.3,114.8,267.6,115.5,254.9,116.1z"/>
<path class="st5" d="M149.1,118c-27.1,30.5-54.1,61-81.2,91.5c0,14.6-0.1,29.2-0.1,43.7c40.8-45.6,81.5-91.2,122.3-136.8
	C176.4,117,162.7,117.5,149.1,118z"/>
<path class="st5" d="M816.4,950.8c-82.9,85.9-165.8,171.8-248.6,257.7c0,13.7,0,27.4,0,41.1c82.9-86.9,165.8-173.9,248.6-260.8
	V950.8z"/>
<path class="st5" d="M817.1,1047.2c-82.9,85.9-165.8,171.8-248.6,257.7c0,13.7,0,27.4,0,41.1c82.9-86.9,165.8-173.9,248.6-260.8
	V1047.2z"/>
<path class="st6" d="M816.4,870.6c-82.7,83.1-165.5,166.2-248.2,249.3c-0.2,10.4-0.3,20.9-0.5,31.3
	c82.9-86.9,165.8-173.9,248.6-260.8C816.4,883.8,816.4,877.2,816.4,870.6z"/>
<path class="st5" d="M817.1,1139.9c-82.9,85.9-165.8,171.8-248.6,257.7c0,13.7,0,27.4,0,41.1c82.9-86.9,165.8-173.9,248.6-260.8
	V1139.9z"/>
<path class="st5" d="M817.1,1235.2c-82.9,85.9-165.8,171.8-248.6,257.7c0,13.7,0,27.4,0,41.1c82.9-86.9,165.8-173.9,248.6-260.8
	V1235.2z"/>
<path class="st5" d="M817.1,1332.6c-82.9,85.9-165.8,171.8-248.6,257.7c0,9,0,18,0,27c82.9-82.2,165.8-164.5,248.6-246.7V1332.6z"/>
<path class="st5" d="M817.1,1430.6c-60.4,62.6-120.7,125.1-181.1,187.7c12.8,0,25.6,0,38.4,0c47.6-49.9,95.1-99.8,142.7-149.7
	V1430.6z"/>
<path class="st5" d="M817.1,1534c-27.4,28.4-54.7,56.7-82.1,85.1c12.4,0,24.7,0.1,37.1,0.1c15-15.7,30-31.5,45-47.2V1534z"/>
<path class="st5" d="M218.8,865.5c-50.8,52.7-101.7,105.4-152.5,158.1c0,13.7,0,27.4,0,41.1c63.3-66.4,126.7-132.9,190-199.3
	C243.8,865.4,231.3,865.5,218.8,865.5z"/>
<path class="st5" d="M120.4,865.8c-18.5,18.9-37.1,37.8-55.6,56.7c0,13.7,0,27.4,0,41.1c31.2-32.8,62.3-65.5,93.5-98.3
	C145.6,865.5,133,865.7,120.4,865.8z"/>
<rect x="64.4" y="108.7" class="st1" width="251.7" height="755.2"/>
<rect x="64.7" y="864.1" class="st1" width="251.7" height="755.2"/>
<path class="st1" d="M566.2,1618.7l253,0.7c0-252.5,0-505,0-757.5c-84.2,84.8-168.4,169.6-252.5,254.4L566.2,1618.7z"/>
</svg>
