<?xml version="1.0" encoding="utf-8"?>
<!-- Generator: Adobe Illustrator 23.0.1, SVG Export Plug-In . SVG Version: 6.00 Build 0)  -->
<svg version="1.1" id="Calque_1" xmlns="http://www.w3.org/2000/svg" xmlns:xlink="http://www.w3.org/1999/xlink" x="0px" y="0px"
	 viewBox="0 0 883.89 1728" style="enable-background:new 0 0 883.89 1728;" xml:space="preserve">
<style type="text/css">
	.st0{opacity:0.4;fill:#FFFFFF;stroke:#FFFFFF;stroke-width:20;stroke-miterlimit:10;}
	.st1{fill:#FFFFFF;stroke:#FFFFFF;stroke-width:20;stroke-miterlimit:10;}
</style>
<rect x="18.86" y="13.61" class="st0" width="283.46" height="1700.79"/>
<rect x="18.86" y="864" class="st1" width="283.46" height="850.39"/>
<rect x="18.52" y="13.33" class="st1" width="283.46" height="850.39"/>
<path class="st1" d="M302.32,13.61h282c13.89-1.02,135.66-7.88,220.06,88.69c69.98,80.08,64.96,174.83,63.61,193.33
	c1.28,16.82,7.26,117.6-69.12,200.15c-84.49,91.32-199.87,84.79-214.56,83.7c-94.42,0.14-188.85,0.28-283.27,0.43"/>
<line class="st1" x1="301.05" y1="579.9" x2="868.52" y2="863.5"/>
<line class="st1" x1="584.85" y1="1149.22" x2="584.32" y2="1714.39"/>
<path class="st1" d="M583.6,1713.62l284.89,0.77c0-284.32,0.01-568.64,0.01-852.95c-94.79,95.5-189.59,191.01-284.38,286.51
	L583.6,1713.62z"/>
<line class="st1" x1="868.79" y1="863.72" x2="558.45" y2="1174.06"/>
<path class="st1" d="M299.6,865.55C206.28,962.27,112.95,1059,19.62,1155.73c0,15.43,0,30.86,0,46.28
	c93.33-97.9,186.66-195.8,279.99-293.7V865.55z"/>
<path class="st1" d="M299.6,980.13c-93.33,96.73-186.66,193.45-279.98,290.18c0,15.43,0,30.86,0,46.28
	c93.33-97.9,186.66-195.8,279.99-293.7V980.13z"/>
<path class="st1" d="M300.58,1095.34c-93.33,96.73-186.66,193.45-279.98,290.18c0,15.43,0,30.86,0,46.28
	c93.33-97.9,186.66-195.8,279.99-293.7V1095.34z"/>
<path class="st1" d="M300.58,1203.56c-93.33,96.73-186.66,193.45-279.98,290.18c0,15.43,0,30.86,0,46.28
	c93.33-97.9,186.66-195.8,279.99-293.7V1203.56z"/>
<path class="st1" d="M299.6,1316.6c-93.33,96.73-186.66,193.45-279.98,290.18c0,15.43,0,30.86,0,46.28
	c93.33-97.9,186.66-195.8,279.99-293.7V1316.6z"/>
<path class="st1" d="M300.58,1429.85c-91.74,94.85-183.49,189.69-275.23,284.54c14.92,0,29.83,0,44.75,0
	c76.83-80.59,153.66-161.18,230.49-241.77V1429.85z"/>
<path class="st1" d="M300.58,1540.03c-55.95,58.05-111.9,116.1-167.86,174.15c14.18,0.13,28.36,0.25,42.54,0.38
	c41.77-43.92,83.55-87.84,125.32-131.76V1540.03z"/>
<path class="st1" d="M302.32,1648.99c-20.78,21.8-41.56,43.6-62.34,65.4c14.04,0,28.08,0,42.13,0c6.74-7.55,13.47-15.09,20.21-22.64
	V1648.99z"/>
<path class="st1" d="M297.97,755.97c-33.26,34.56-66.53,69.13-99.79,103.69c14.51-0.02,29.01-0.04,43.52-0.06
	c18.78-20.15,37.56-40.3,56.34-60.44C298.02,784.76,297.99,770.36,297.97,755.97z"/>
<path class="st1" d="M297.68,640.73c-70.41,72.98-140.83,145.96-211.24,218.94c14.58,0,29.15-0.01,43.73-0.01
	c55.79-58.56,111.57-117.12,167.36-175.68C297.58,669.56,297.63,655.15,297.68,640.73z"/>
<path class="st1" d="M297.97,533.07c-91.89,95.24-183.78,190.48-275.68,285.72c-0.06,13.4-0.12,26.8-0.18,40.2
	C114.03,764.66,205.94,670.33,297.86,576C297.9,561.69,297.93,547.38,297.97,533.07z"/>
<line class="st1" x1="303.65" y1="862.89" x2="560.36" y2="1172.16"/>
<path class="st1" d="M298.04,420.53c-91.84,95.05-183.67,190.1-275.51,285.15c0.03,15.44,0.05,30.89,0.08,46.33
	c91.76-96.14,183.52-192.29,275.29-288.43C297.94,449.23,297.99,434.88,298.04,420.53z"/>
<path class="st1" d="M298.12,307.61c-91.93,95.25-183.86,190.5-275.79,285.75c-0.04,15.46-0.08,30.92-0.12,46.38
	c91.95-96.29,183.89-192.58,275.84-288.87C298.07,336.46,298.09,322.03,298.12,307.61z"/>
<path class="st1" d="M297.93,184.94C206.15,280.1,114.36,375.25,22.57,470.41c0.02,15.39,0.04,30.79,0.06,46.18
	c91.75-96.27,183.51-192.54,275.26-288.8C297.91,213.5,297.92,199.22,297.93,184.94z"/>
<path class="st1" d="M297.97,70.47c-91.77,95.14-183.53,190.28-275.3,285.42c-0.01,15.44-0.02,30.88-0.03,46.32
	c91.74-96.24,183.49-192.47,275.23-288.71C297.91,99.16,297.94,84.81,297.97,70.47z"/>
<path class="st1" d="M236.42,17.73C165.1,91.44,93.78,165.15,22.45,238.85c0.06,15.46,0.13,30.93,0.19,46.39
	C107.72,196.07,192.8,106.9,277.88,17.73C264.06,17.73,250.24,17.73,236.42,17.73z"/>
<path class="st1" d="M119.23,17.6C86.97,54,54.7,90.41,22.43,126.81c-0.04,16.42-0.08,32.84-0.12,49.26
	c47.45-52.8,94.89-105.6,142.34-158.4C149.52,17.65,134.37,17.62,119.23,17.6z"/>
<path class="st1" d="M22.76,17.63c0.02,13.82,0.04,27.63,0.06,41.45c10.85-13.83,21.71-27.67,32.56-41.5
	C44.5,17.59,33.63,17.61,22.76,17.63z"/>
<path class="st1" d="M865.33,961.53c-93.33,96.73-186.66,193.45-279.98,290.18c0,15.43,0,30.86,0,46.28
	c93.33-97.9,186.66-195.8,279.99-293.7V961.53z"/>
<path class="st1" d="M866.05,1070.11c-93.33,96.73-186.66,193.45-279.98,290.18c0,15.43,0,30.86,0,46.28
	c93.33-97.9,186.66-195.8,279.99-293.7V1070.11z"/>
<path class="st1" d="M865.33,871.24c-93.15,93.57-186.31,187.14-279.46,280.71c-0.18,11.76-0.35,23.51-0.53,35.27
	c93.33-97.9,186.66-195.8,279.99-293.7C865.33,886.09,865.33,878.66,865.33,871.24z"/>
<path class="st1" d="M866.05,1174.47c-93.33,96.73-186.66,193.45-279.98,290.18c0,15.43,0,30.86,0,46.28
	c93.33-97.9,186.66-195.8,279.99-293.7V1174.47z"/>
<path class="st1" d="M866.05,1281.87c-93.33,96.73-186.66,193.45-279.98,290.18c0,15.43,0,30.86,0,46.28
	c93.33-97.9,186.66-195.8,279.99-293.7V1281.87z"/>
<path class="st1" d="M866.05,1391.53c-93.33,96.73-186.66,193.45-279.98,290.18c0,10.14-0.01,20.27-0.01,30.41
	c93.33-92.61,186.66-185.22,279.99-277.82V1391.53z"/>
<path class="st1" d="M866.05,1501.8c-67.96,70.44-135.92,140.87-203.89,211.31c14.4,0,28.81,0,43.21,0
	c53.56-56.18,107.12-112.36,160.68-168.54V1501.8z"/>
<path class="st1" d="M866.05,1618.33c-30.81,31.93-61.62,63.87-92.44,95.8c13.92,0.04,27.85,0.08,41.77,0.11
	c16.89-17.72,33.78-35.43,50.67-53.15V1618.33z"/>
<path class="st1" d="M192.38,865.53C135.12,924.87,77.86,984.22,20.6,1043.56c0,15.43,0,30.86,0,46.28
	c71.32-74.81,142.64-149.63,213.97-224.44C220.5,865.44,206.44,865.49,192.38,865.53z"/>
<path class="st1" d="M81.53,865.86c-20.89,21.3-41.78,42.6-62.66,63.9c0,15.43,0,30.86,0,46.28
	c35.09-36.88,70.18-73.76,105.27-110.64C109.93,865.56,95.73,865.71,81.53,865.86z"/>
<g>
</g>
<g>
</g>
<g>
</g>
<g>
</g>
<g>
</g>
</svg>
